<svg version="1.1" id="Layer_1" xmlns="http://www.w3.org/2000/svg" xmlns:xlink="http://www.w3.org/1999/xlink" x="0px" y="0px"
	 width="100%" viewBox="0 0 702 343" enable-background="new 0 0 702 343" xml:space="preserve">
<path fill="#0B0935" opacity="1.000000" stroke="none" 
	d="
M431.000000,344.000000 
	C287.367554,344.000000 144.235123,344.000000 1.051341,344.000000 
	C1.051341,229.728241 1.051341,115.456467 1.051341,1.092342 
	C234.882462,1.092342 468.764954,1.092342 702.823730,1.092342 
	C702.823730,115.333115 702.823730,229.666534 702.823730,344.000000 
	C612.456421,344.000000 521.978210,344.000000 431.000000,344.000000 
M673.723083,135.833527 
	C669.905212,114.228859 660.226013,96.068962 641.604980,83.774971 
	C620.319946,69.722145 596.514526,65.237221 571.408752,67.492935 
	C555.836792,68.892059 542.033386,74.849251 530.911438,86.105949 
	C512.151917,105.092690 505.179504,128.801971 504.173798,154.704468 
	C504.092743,156.792923 505.641937,159.629593 507.341156,160.955353 
	C510.578705,163.481415 510.517761,165.717896 508.824585,169.041077 
	C504.816711,176.907440 501.125397,184.935242 497.312744,192.900955 
	C492.513031,202.929016 495.342987,209.455688 506.147491,212.623169 
	C509.125458,213.496216 509.515564,214.818329 509.764709,217.840302 
	C510.276367,224.046799 509.243195,230.978027 515.507812,235.612976 
	C516.677795,236.478622 516.947021,239.209763 516.848694,241.037857 
	C516.135925,254.288376 523.326294,261.989014 536.493591,261.641846 
	C544.818909,261.422363 553.136597,260.885559 561.462097,260.739502 
	C562.833984,260.715424 564.707581,261.652435 565.442627,262.751556 
	C565.926880,263.475586 565.081848,265.495087 564.319580,266.571686 
	C561.818970,270.103394 559.067993,273.457001 556.444153,276.902710 
	C554.193604,279.858185 551.878418,282.841858 553.805725,286.883575 
	C555.763245,290.988647 559.532288,290.856049 563.262756,290.854584 
	C594.758179,290.842163 626.253540,290.853607 657.748962,290.845154 
	C667.715271,290.842499 670.141296,286.748627 666.194885,277.594971 
	C660.962708,265.459259 654.132446,254.080063 650.699646,241.069763 
	C647.029358,227.159698 647.968506,214.923401 658.027344,203.803284 
	C661.750488,199.687317 664.738892,194.623718 667.001953,189.521912 
	C674.481628,172.659470 676.413208,154.937012 673.723083,135.833527 
M227.627563,165.802002 
	C227.808655,164.761658 227.989746,163.721313 228.345535,161.677338 
	C229.862366,163.771271 230.849915,165.025879 231.721954,166.356201 
	C236.830017,174.148697 241.846924,182.002243 247.061905,189.722168 
	C247.972900,191.070740 249.591736,192.627258 251.034897,192.796265 
	C254.749298,193.231216 258.548523,192.941757 262.321686,192.941757 
	C262.321686,172.969070 262.321686,153.618088 262.321686,134.303436 
	C257.657684,134.303436 253.400238,134.303436 248.477829,134.303436 
	C248.477829,143.047653 248.477829,151.527222 248.477829,160.006775 
	C241.997055,152.543976 236.693192,144.763870 231.151703,137.156860 
	C230.129272,135.753326 228.219986,134.333481 226.590958,134.164368 
	C222.491959,133.738785 218.319214,134.023560 213.910110,134.023560 
	C213.910110,153.792130 213.910110,173.193970 213.910110,192.753677 
	C218.447662,192.753677 222.727310,192.753677 227.625992,192.753677 
	C227.625992,183.962677 227.625992,175.355164 227.627563,165.802002 
M39.787003,185.700851 
	C46.863483,194.642807 56.406300,195.235382 66.538506,193.426529 
	C75.980667,191.740860 80.666481,185.024185 84.062515,176.552490 
	C79.622795,174.066727 75.481674,171.748138 71.393234,169.459045 
	C69.733238,171.867981 68.649605,173.973953 67.080711,175.616425 
	C62.519047,180.391953 56.055748,179.744827 52.853912,173.979355 
	C49.164761,167.336380 48.697422,160.084747 52.175129,153.375076 
	C53.436424,150.941589 57.205238,148.562408 59.908546,148.470474 
	C62.635235,148.377731 65.704407,150.846191 68.146606,152.791336 
	C69.549728,153.908890 70.005875,156.215393 70.948547,158.107574 
	C72.216354,157.988556 73.381981,158.003738 74.486855,157.752151 
	C77.859299,156.984222 81.208351,156.113556 84.490982,155.301559 
	C83.805550,143.266556 77.637993,135.449799 67.401260,133.279312 
	C55.127903,130.677002 42.097961,135.820999 37.363876,145.985779 
	C31.201891,159.216476 31.690062,172.442139 39.787003,185.700851 
M340.243073,189.295044 
	C355.588531,200.141052 375.558563,193.894272 380.703827,176.374664 
	C376.611755,174.095352 372.463776,171.784912 368.104736,169.356888 
	C367.252167,170.896622 366.891754,172.400543 365.939667,173.106308 
	C363.137299,175.183716 360.268463,178.076889 357.112946,178.545670 
	C353.075928,179.145386 349.470673,175.911377 348.889465,171.944611 
	C348.045593,166.185532 347.942474,160.174774 348.589111,154.390503 
	C349.023987,150.500443 352.543243,148.275986 356.614014,148.142807 
	C360.545532,148.014206 363.737183,149.586624 365.563293,153.314041 
	C366.353912,154.927856 367.153870,156.537125 368.107544,158.468384 
	C372.740662,157.382111 377.179962,156.341293 381.536438,155.319901 
	C380.432800,143.103409 374.921448,135.919495 365.186279,133.497818 
	C353.676666,130.634735 340.974854,135.266403 335.143127,144.276733 
	C327.584991,155.954636 328.860352,180.323669 340.243073,189.295044 
M455.652008,185.508453 
	C451.655731,173.166458 447.694336,160.813019 443.645416,148.488312 
	C442.094208,143.766418 441.644318,137.198853 438.330109,134.942688 
	C434.764343,132.515274 428.412262,134.348846 423.303894,133.957703 
	C420.131622,133.714813 419.021759,135.116226 418.153259,137.874969 
	C413.557556,152.473297 408.783722,167.015549 404.075226,181.578400 
	C402.911560,185.177628 401.761261,188.781174 400.424500,192.944229 
	C404.664490,192.944229 408.309448,193.129318 411.915070,192.834167 
	C413.032288,192.742706 414.868011,191.441086 414.972260,190.532562 
	C415.856110,182.830582 420.859924,182.162888 427.012787,182.924637 
	C429.142883,183.188339 431.379883,183.252930 433.486084,182.907852 
	C438.018250,182.165298 440.079254,184.096024 441.080841,188.393402 
	C441.475800,190.088089 443.211853,192.545624 444.597443,192.733185 
	C448.820923,193.304871 453.171143,192.940567 457.894897,192.940567 
	C457.130402,190.376816 456.517761,188.322342 455.652008,185.508453 
M124.872345,169.473511 
	C124.872345,157.742386 124.872345,146.011261 124.872345,134.264008 
	C118.950012,134.264008 113.850426,134.264008 108.494141,134.264008 
	C108.494141,153.857040 108.494141,173.204926 108.494141,192.584213 
	C121.486351,192.584213 134.158707,192.584213 146.762314,192.584213 
	C146.762314,187.474686 146.762314,182.736786 146.762314,177.435242 
	C139.375671,177.435242 132.321701,177.435242 124.871880,177.435242 
	C124.871880,174.734573 124.871880,172.602356 124.872345,169.473511 
M306.106598,189.944916 
	C306.106598,171.409958 306.106598,152.874985 306.106598,134.355942 
	C300.234802,134.355942 295.015320,134.355942 289.759033,134.355942 
	C289.759033,154.034760 289.759033,173.368027 289.759033,192.951157 
	C294.606842,192.951157 299.088135,193.062897 303.554596,192.855362 
	C304.430725,192.814651 305.249512,191.539062 306.106598,189.944916 
M170.181152,159.499969 
	C170.181152,170.571655 170.181152,181.643326 170.181152,192.553040 
	C176.209824,192.553040 181.437790,192.553040 186.610458,192.553040 
	C186.610458,172.925003 186.610458,153.704529 186.610458,134.337662 
	C181.082581,134.337662 175.868408,134.337662 170.181183,134.337662 
	C170.181183,142.604782 170.181183,150.552383 170.181152,159.499969 
M313.001129,221.561646 
	C311.337555,221.570740 309.633545,221.367004 308.026184,221.672226 
	C307.123779,221.843582 306.381195,222.856461 305.566589,223.490204 
	C306.183533,224.125778 306.717224,224.890732 307.442657,225.357773 
	C308.071777,225.762787 308.918213,225.830307 309.668579,226.046997 
	C309.576324,226.561905 309.484070,227.076797 309.391815,227.591705 
	C307.459747,227.189560 304.700653,227.412308 303.805054,226.227036 
	C302.687225,224.747604 302.223053,221.550720 303.119202,220.135468 
	C303.929596,218.855682 306.938995,218.641281 308.998138,218.576706 
	C310.840485,218.518936 312.709290,219.306488 315.322418,219.889832 
	C312.912842,214.337570 308.961060,212.297256 304.441986,213.261642 
	C300.070770,214.194443 296.982208,218.060654 296.987854,222.592590 
	C296.994537,227.964111 299.876038,231.350082 305.190308,232.231094 
	C309.565674,232.956451 314.344025,230.750473 315.342957,226.902206 
	C315.737274,225.383087 314.368378,223.406281 313.001129,221.561646 
M264.743591,215.113495 
	C260.530151,219.411469 259.837982,224.961319 263.028015,228.868958 
	C265.871979,232.352646 272.267914,233.280655 276.272583,230.790649 
	C280.484253,228.171936 282.024323,222.386734 279.654755,218.085785 
	C277.117676,213.480774 271.889923,211.950455 266.237396,214.168625 
	C265.932251,214.288376 265.662079,214.497177 264.743591,215.113495 
M82.429657,231.514725 
	C82.675659,228.160202 83.445595,225.943604 87.757393,225.477158 
	C92.465645,224.967850 94.718666,217.990372 90.978661,215.583694 
	C87.865189,213.580200 83.268005,213.637878 79.302086,213.493256 
	C78.767853,213.473755 77.789864,217.577332 77.540710,219.829575 
	C77.231934,222.620911 77.551277,225.475586 77.448563,228.297424 
	C77.330734,231.534439 78.435623,233.119934 82.429657,231.514725 
M200.779938,229.891953 
	C202.102554,230.551849 203.359848,231.459976 204.759216,231.828278 
	C210.531998,233.347626 215.707947,230.347534 217.049133,224.863144 
	C218.292740,219.777756 215.308746,214.714951 210.108841,213.407593 
	C205.613297,212.277313 201.827255,213.756516 199.239578,217.502090 
	C196.417770,221.586609 197.204575,225.637100 200.779938,229.891953 
M406.296844,225.018280 
	C405.180023,221.878586 404.207886,218.677353 402.906097,215.616333 
	C401.576508,212.490067 397.095978,211.771927 395.865692,214.590729 
	C393.504333,220.001053 391.757629,225.679688 389.755951,231.247009 
	C390.143402,231.650345 390.530853,232.053680 390.918335,232.457001 
	C393.633972,231.273483 396.359589,229.137436 399.062531,229.165756 
	C401.950287,229.196045 404.816620,231.268753 409.039886,233.003418 
	C407.833984,229.459015 407.201599,227.600235 406.296844,225.018280 
M170.004654,213.203323 
	C164.065887,215.526016 161.617142,219.175018 162.494751,224.394119 
	C163.233658,228.788284 166.960037,232.113678 171.434647,232.371979 
	C176.121521,232.642548 179.274261,230.412796 180.694260,224.873642 
	C178.246628,225.649109 176.410477,226.611786 174.524673,226.721558 
	C172.623001,226.832230 169.829422,226.724670 168.964966,225.565475 
	C167.977951,224.241989 167.939026,221.119568 168.892746,219.775711 
	C169.699066,218.639542 172.519943,218.611038 174.431458,218.669907 
	C176.425369,218.731323 178.397980,219.483780 181.385498,220.162582 
	C178.916473,214.127182 175.267426,212.920395 170.004654,213.203323 
M108.834381,219.943085 
	C111.626640,222.292557 114.418900,224.642044 118.302490,227.909775 
	C114.398079,227.131348 111.951347,226.643539 109.022392,226.059586 
	C109.223122,230.811050 111.844940,232.234650 114.682106,232.002274 
	C117.366249,231.782410 121.287247,230.931107 122.319817,229.062195 
	C126.326027,221.811157 117.441673,222.132767 114.465729,218.192780 
	C117.622200,218.370285 120.022804,218.505280 122.810577,218.662048 
	C120.760757,213.810776 119.203903,212.808411 115.044762,213.087631 
	C111.189072,213.346451 108.826607,215.157898 108.834381,219.943085 
M360.107483,224.238388 
	C360.280121,217.975937 362.048920,216.803329 367.614624,218.988586 
	C369.113739,219.577194 370.855713,219.547256 372.874634,219.861755 
	C370.957001,214.457932 367.022156,212.252365 362.257660,213.262253 
	C357.698669,214.228592 354.424713,218.431488 354.670959,223.001587 
	C354.939697,227.989700 358.187531,231.556061 362.930389,232.071136 
	C368.163544,232.639465 371.181519,230.765778 372.843231,225.060471 
	C370.590607,225.666626 368.725220,225.854889 367.174469,226.653809 
	C364.302429,228.133438 362.120300,227.801117 360.107483,224.238388 
M234.184250,220.587784 
	C234.184204,222.245804 234.183228,223.903839 234.184280,225.561859 
	C234.188629,232.328766 236.622208,234.165710 243.275574,232.279221 
	C244.072723,232.053207 245.154388,231.232666 245.244202,230.570969 
	C245.329590,229.941895 244.274841,228.532455 243.743454,228.543335 
	C239.098251,228.638504 239.472046,225.503601 239.553864,222.449142 
	C239.607117,220.460999 239.863220,218.404099 239.449707,216.503922 
	C239.176483,215.248398 237.876572,214.216309 237.036316,213.084183 
	C236.087326,214.274857 234.943176,215.365601 234.263031,216.693924 
	C233.859146,217.482742 234.186218,218.645813 234.184250,220.587784 
M334.743042,213.097214 
	C334.184937,213.407181 333.151978,213.699203 333.139465,214.029816 
	C332.926910,219.654709 332.768677,225.285400 332.849854,230.911209 
	C332.857178,231.417496 334.648651,232.363419 335.507263,232.257767 
	C336.323090,232.157379 337.617676,230.965271 337.642151,230.218460 
	C337.811035,225.063202 337.768829,219.896591 337.590607,214.740662 
	C337.570618,214.162628 336.274445,213.628723 334.743042,213.097214 
M142.602509,232.094971 
	C143.561676,231.643082 145.335419,231.223557 145.354858,230.734329 
	C145.564438,225.463226 145.582764,220.178040 145.392349,214.906158 
	C145.369995,214.287491 143.827194,213.371384 142.905182,213.254089 
	C142.222275,213.167206 140.728851,214.178665 140.746918,214.657425 
	C140.964493,220.422318 141.396667,226.179108 142.602509,232.094971 
z"/>
<path fill="#5063C7" opacity="1.000000" stroke="none" 
	d="
M673.787354,136.267136 
	C676.413208,154.937012 674.481628,172.659470 667.001953,189.521912 
	C664.738892,194.623718 661.750488,199.687317 658.027344,203.803284 
	C647.968506,214.923401 647.029358,227.159698 650.699646,241.069763 
	C654.132446,254.080063 660.962708,265.459259 666.194885,277.594971 
	C670.141296,286.748627 667.715271,290.842499 657.748962,290.845154 
	C626.253540,290.853607 594.758179,290.842163 563.262756,290.854584 
	C559.532288,290.856049 555.763245,290.988647 553.805725,286.883575 
	C551.878418,282.841858 554.193604,279.858185 556.444153,276.902710 
	C559.067993,273.457001 561.818970,270.103394 564.319580,266.571686 
	C565.081848,265.495087 565.926880,263.475586 565.442627,262.751556 
	C564.707581,261.652435 562.833984,260.715424 561.462097,260.739502 
	C553.136597,260.885559 544.818909,261.422363 536.493591,261.641846 
	C523.326294,261.989014 516.135925,254.288376 516.848694,241.037857 
	C516.947021,239.209763 516.677795,236.478622 515.507812,235.612976 
	C509.243195,230.978027 510.276367,224.046799 509.764709,217.840302 
	C509.515564,214.818329 509.125458,213.496216 506.147491,212.623169 
	C495.342987,209.455688 492.513031,202.929016 497.312744,192.900955 
	C501.125397,184.935242 504.816711,176.907440 508.824585,169.041077 
	C510.517761,165.717896 510.578705,163.481415 507.341156,160.955353 
	C505.641937,159.629593 504.092743,156.792923 504.173798,154.704468 
	C505.179504,128.801971 512.151917,105.092690 530.911438,86.105949 
	C542.033386,74.849251 555.836792,68.892059 571.408752,67.492935 
	C596.514526,65.237221 620.319946,69.722145 641.604980,83.774971 
	C660.226013,96.068962 669.905212,114.228859 673.787354,136.267136 
M540.177368,85.596817 
	C538.528015,86.994766 536.791870,88.303154 535.242676,89.804459 
	C518.635315,105.898529 512.631592,126.552864 509.832031,148.644150 
	C509.200684,153.626190 510.308350,157.470551 514.790222,160.021912 
	C517.775513,161.721344 517.652405,163.770554 516.191895,166.642548 
	C512.116577,174.656326 508.362030,182.832886 504.461670,190.935974 
	C498.455688,203.413391 498.743774,204.121552 511.658691,208.298172 
	C512.134033,208.451889 512.808411,208.459946 513.049561,208.786957 
	C514.075928,210.178955 515.642273,211.599106 515.794556,213.130035 
	C516.262756,217.836914 516.093872,222.603989 516.371033,227.336044 
	C516.419983,228.172424 517.251343,229.214218 518.014221,229.716278 
	C522.512085,232.676559 523.076111,236.849792 522.785889,241.865616 
	C522.217468,251.688019 526.963440,256.277435 536.916138,256.003601 
	C545.735046,255.760971 554.559937,255.440414 563.355286,254.790985 
	C566.466064,254.561310 568.089905,255.471802 569.834167,258.015869 
	C573.076904,262.745605 572.842590,266.450836 568.780212,270.668823 
	C564.971252,274.623688 561.940796,279.328400 557.783020,284.720947 
	C593.569092,284.720947 627.694153,284.720947 662.007751,284.720947 
	C662.007751,283.633118 662.219482,282.893951 661.976074,282.363800 
	C658.017151,273.741302 654.094482,265.098602 649.874023,256.604340 
	C649.366821,255.583450 647.139404,254.840790 645.770752,254.928406 
	C640.959778,255.236450 636.183044,256.041656 631.377563,256.489960 
	C629.623413,256.653595 627.825439,256.346710 626.047424,256.254517 
	C625.949524,255.759277 625.851562,255.264038 625.753662,254.768799 
	C627.227844,253.935730 628.631714,252.926147 630.190308,252.304840 
	C633.900940,250.825684 637.612610,249.260681 641.458252,248.232788 
	C645.659546,247.109848 646.345459,245.249786 645.066040,241.064484 
	C640.577942,226.383682 642.797974,213.064438 652.993958,200.898987 
	C657.592529,195.412216 661.127014,188.708160 663.821045,182.023148 
	C668.413208,170.627853 669.752869,158.451202 668.979614,146.203720 
	C667.211426,118.196571 655.143372,96.420174 629.429016,83.614021 
	C612.550659,75.208359 594.464233,71.829681 575.644897,72.998779 
	C562.935974,73.788284 551.135132,77.525284 540.177368,85.596817 
z"/>
<path fill="#F6F6F7" opacity="1.000000" stroke="none" 
	d="
M227.626770,166.274826 
	C227.625992,175.355164 227.625992,183.962677 227.625992,192.753677 
	C222.727310,192.753677 218.447662,192.753677 213.910110,192.753677 
	C213.910110,173.193970 213.910110,153.792130 213.910110,134.023560 
	C218.319214,134.023560 222.491959,133.738785 226.590958,134.164368 
	C228.219986,134.333481 230.129272,135.753326 231.151703,137.156860 
	C236.693192,144.763870 241.997055,152.543976 248.477829,160.006775 
	C248.477829,151.527222 248.477829,143.047653 248.477829,134.303436 
	C253.400238,134.303436 257.657684,134.303436 262.321686,134.303436 
	C262.321686,153.618088 262.321686,172.969070 262.321686,192.941757 
	C258.548523,192.941757 254.749298,193.231216 251.034897,192.796265 
	C249.591736,192.627258 247.972900,191.070740 247.061905,189.722168 
	C241.846924,182.002243 236.830017,174.148697 231.721954,166.356201 
	C230.849915,165.025879 229.862366,163.771271 228.345535,161.677338 
	C227.989746,163.721313 227.808655,164.761658 227.626770,166.274826 
z"/>
<path fill="#F7F7F9" opacity="1.000000" stroke="none" 
	d="
M39.566681,185.419830 
	C31.690062,172.442139 31.201891,159.216476 37.363876,145.985779 
	C42.097961,135.820999 55.127903,130.677002 67.401260,133.279312 
	C77.637993,135.449799 83.805550,143.266556 84.490982,155.301559 
	C81.208351,156.113556 77.859299,156.984222 74.486855,157.752151 
	C73.381981,158.003738 72.216354,157.988556 70.948547,158.107574 
	C70.005875,156.215393 69.549728,153.908890 68.146606,152.791336 
	C65.704407,150.846191 62.635235,148.377731 59.908546,148.470474 
	C57.205238,148.562408 53.436424,150.941589 52.175129,153.375076 
	C48.697422,160.084747 49.164761,167.336380 52.853912,173.979355 
	C56.055748,179.744827 62.519047,180.391953 67.080711,175.616425 
	C68.649605,173.973953 69.733238,171.867981 71.393234,169.459045 
	C75.481674,171.748138 79.622795,174.066727 84.062515,176.552490 
	C80.666481,185.024185 75.980667,191.740860 66.538506,193.426529 
	C56.406300,195.235382 46.863483,194.642807 39.566681,185.419830 
z"/>
<path fill="#F8F8F9" opacity="1.000000" stroke="none" 
	d="
M339.957703,189.076172 
	C328.860352,180.323669 327.584991,155.954636 335.143127,144.276733 
	C340.974854,135.266403 353.676666,130.634735 365.186279,133.497818 
	C374.921448,135.919495 380.432800,143.103409 381.536438,155.319901 
	C377.179962,156.341293 372.740662,157.382111 368.107544,158.468384 
	C367.153870,156.537125 366.353912,154.927856 365.563293,153.314041 
	C363.737183,149.586624 360.545532,148.014206 356.614014,148.142807 
	C352.543243,148.275986 349.023987,150.500443 348.589111,154.390503 
	C347.942474,160.174774 348.045593,166.185532 348.889465,171.944611 
	C349.470673,175.911377 353.075928,179.145386 357.112946,178.545670 
	C360.268463,178.076889 363.137299,175.183716 365.939667,173.106308 
	C366.891754,172.400543 367.252167,170.896622 368.104736,169.356888 
	C372.463776,171.784912 376.611755,174.095352 380.703827,176.374664 
	C375.558563,193.894272 355.588531,200.141052 339.957703,189.076172 
z"/>
<path fill="#F8F8F9" opacity="1.000000" stroke="none" 
	d="
M455.778564,185.888168 
	C456.517761,188.322342 457.130402,190.376816 457.894897,192.940567 
	C453.171143,192.940567 448.820923,193.304871 444.597443,192.733185 
	C443.211853,192.545624 441.475800,190.088089 441.080841,188.393402 
	C440.079254,184.096024 438.018250,182.165298 433.486084,182.907852 
	C431.379883,183.252930 429.142883,183.188339 427.012787,182.924637 
	C420.859924,182.162888 415.856110,182.830582 414.972260,190.532562 
	C414.868011,191.441086 413.032288,192.742706 411.915070,192.834167 
	C408.309448,193.129318 404.664490,192.944229 400.424500,192.944229 
	C401.761261,188.781174 402.911560,185.177628 404.075226,181.578400 
	C408.783722,167.015549 413.557556,152.473297 418.153259,137.874969 
	C419.021759,135.116226 420.131622,133.714813 423.303894,133.957703 
	C428.412262,134.348846 434.764343,132.515274 438.330109,134.942688 
	C441.644318,137.198853 442.094208,143.766418 443.645416,148.488312 
	C447.694336,160.813019 451.655731,173.166458 455.778564,185.888168 
M424.311676,162.634201 
	C423.577271,164.931839 422.842896,167.229477 422.053528,169.699066 
	C426.541870,169.699066 430.437988,169.699066 434.809723,169.699066 
	C432.785980,163.707092 430.908325,158.147720 429.030670,152.588348 
	C428.646851,152.607483 428.263031,152.626633 427.879211,152.645782 
	C426.779846,155.729904 425.680511,158.814041 424.311676,162.634201 
z"/>
<path fill="#F6F6F7" opacity="1.000000" stroke="none" 
	d="
M124.872116,169.971832 
	C124.871880,172.602356 124.871880,174.734573 124.871880,177.435242 
	C132.321701,177.435242 139.375671,177.435242 146.762314,177.435242 
	C146.762314,182.736786 146.762314,187.474686 146.762314,192.584213 
	C134.158707,192.584213 121.486351,192.584213 108.494141,192.584213 
	C108.494141,173.204926 108.494141,153.857040 108.494141,134.264008 
	C113.850426,134.264008 118.950012,134.264008 124.872345,134.264008 
	C124.872345,146.011261 124.872345,157.742386 124.872116,169.971832 
z"/>
<path fill="#F3F3F5" opacity="1.000000" stroke="none" 
	d="
M306.100677,190.388977 
	C305.249512,191.539062 304.430725,192.814651 303.554596,192.855362 
	C299.088135,193.062897 294.606842,192.951157 289.759033,192.951157 
	C289.759033,173.368027 289.759033,154.034760 289.759033,134.355942 
	C295.015320,134.355942 300.234802,134.355942 306.106598,134.355942 
	C306.106598,152.874985 306.106598,171.409958 306.100677,190.388977 
z"/>
<path fill="#F2F2F4" opacity="1.000000" stroke="none" 
	d="
M170.181168,158.999969 
	C170.181183,150.552383 170.181183,142.604782 170.181183,134.337662 
	C175.868408,134.337662 181.082581,134.337662 186.610458,134.337662 
	C186.610458,153.704529 186.610458,172.925003 186.610458,192.553040 
	C181.437790,192.553040 176.209824,192.553040 170.181152,192.553040 
	C170.181152,181.643326 170.181152,170.571655 170.181168,158.999969 
z"/>
<path fill="#4E61C3" opacity="1.000000" stroke="none" 
	d="
M313.401733,221.599762 
	C314.368378,223.406281 315.737274,225.383087 315.342957,226.902206 
	C314.344025,230.750473 309.565674,232.956451 305.190308,232.231094 
	C299.876038,231.350082 296.994537,227.964111 296.987854,222.592590 
	C296.982208,218.060654 300.070770,214.194443 304.441986,213.261642 
	C308.961060,212.297256 312.912842,214.337570 315.322418,219.889832 
	C312.709290,219.306488 310.840485,218.518936 308.998138,218.576706 
	C306.938995,218.641281 303.929596,218.855682 303.119202,220.135468 
	C302.223053,221.550720 302.687225,224.747604 303.805054,226.227036 
	C304.700653,227.412308 307.459747,227.189560 309.391815,227.591705 
	C309.484070,227.076797 309.576324,226.561905 309.668579,226.046997 
	C308.918213,225.830307 308.071777,225.762787 307.442657,225.357773 
	C306.717224,224.890732 306.183533,224.125778 305.566589,223.490204 
	C306.381195,222.856461 307.123779,221.843582 308.026184,221.672226 
	C309.633545,221.367004 311.337555,221.570740 313.401733,221.599762 
z"/>
<path fill="#4E61C3" opacity="1.000000" stroke="none" 
	d="
M265.059631,214.889008 
	C265.662079,214.497177 265.932251,214.288376 266.237396,214.168625 
	C271.889923,211.950455 277.117676,213.480774 279.654755,218.085785 
	C282.024323,222.386734 280.484253,228.171936 276.272583,230.790649 
	C272.267914,233.280655 265.871979,232.352646 263.028015,228.868958 
	C259.837982,224.961319 260.530151,219.411469 265.059631,214.889008 
M275.719574,222.514496 
	C275.251068,219.435974 273.838867,216.617310 270.445984,217.503860 
	C268.660828,217.970322 266.559845,220.652359 266.323486,222.548630 
	C266.131073,224.092026 268.159851,226.865051 269.807434,227.483017 
	C273.051849,228.699860 274.975952,226.457611 275.719574,222.514496 
z"/>
<path fill="#4C5EBF" opacity="1.000000" stroke="none" 
	d="
M82.155266,231.766510 
	C78.435623,233.119934 77.330734,231.534439 77.448563,228.297424 
	C77.551277,225.475586 77.231934,222.620911 77.540710,219.829575 
	C77.789864,217.577332 78.767853,213.473755 79.302086,213.493256 
	C83.268005,213.637878 87.865189,213.580200 90.978661,215.583694 
	C94.718666,217.990372 92.465645,224.967850 87.757393,225.477158 
	C83.445595,225.943604 82.675659,228.160202 82.155266,231.766510 
z"/>
<path fill="#4E61C3" opacity="1.000000" stroke="none" 
	d="
M200.504333,229.631454 
	C197.204575,225.637100 196.417770,221.586609 199.239578,217.502090 
	C201.827255,213.756516 205.613297,212.277313 210.108841,213.407593 
	C215.308746,214.714951 218.292740,219.777756 217.049133,224.863144 
	C215.707947,230.347534 210.531998,233.347626 204.759216,231.828278 
	C203.359848,231.459976 202.102554,230.551849 200.504333,229.631454 
M202.857834,222.530396 
	C202.712906,225.785339 204.404099,228.014603 207.483429,227.566284 
	C209.191162,227.317627 211.365158,225.188431 211.944565,223.446396 
	C212.847427,220.731964 211.648529,217.994919 208.378754,217.428345 
	C205.239639,216.884384 203.327179,218.511124 202.857834,222.530396 
z"/>
<path fill="#4E61C3" opacity="1.000000" stroke="none" 
	d="
M406.433014,225.379868 
	C407.201599,227.600235 407.833984,229.459015 409.039886,233.003418 
	C404.816620,231.268753 401.950287,229.196045 399.062531,229.165756 
	C396.359589,229.137436 393.633972,231.273483 390.918335,232.457001 
	C390.530853,232.053680 390.143402,231.650345 389.755951,231.247009 
	C391.757629,225.679688 393.504333,220.001053 395.865692,214.590729 
	C397.095978,211.771927 401.576508,212.490067 402.906097,215.616333 
	C404.207886,218.677353 405.180023,221.878586 406.433014,225.379868 
z"/>
<path fill="#4C5EBF" opacity="1.000000" stroke="none" 
	d="
M170.406189,213.161301 
	C175.267426,212.920395 178.916473,214.127182 181.385498,220.162582 
	C178.397980,219.483780 176.425369,218.731323 174.431458,218.669907 
	C172.519943,218.611038 169.699066,218.639542 168.892746,219.775711 
	C167.939026,221.119568 167.977951,224.241989 168.964966,225.565475 
	C169.829422,226.724670 172.623001,226.832230 174.524673,226.721558 
	C176.410477,226.611786 178.246628,225.649109 180.694260,224.873642 
	C179.274261,230.412796 176.121521,232.642548 171.434647,232.371979 
	C166.960037,232.113678 163.233658,228.788284 162.494751,224.394119 
	C161.617142,219.175018 164.065887,215.526016 170.406189,213.161301 
z"/>
<path fill="#4C5EBF" opacity="1.000000" stroke="none" 
	d="
M108.763512,219.599762 
	C108.826607,215.157898 111.189072,213.346451 115.044762,213.087631 
	C119.203903,212.808411 120.760757,213.810776 122.810577,218.662048 
	C120.022804,218.505280 117.622200,218.370285 114.465729,218.192780 
	C117.441673,222.132767 126.326027,221.811157 122.319817,229.062195 
	C121.287247,230.931107 117.366249,231.782410 114.682106,232.002274 
	C111.844940,232.234650 109.223122,230.811050 109.022392,226.059586 
	C111.951347,226.643539 114.398079,227.131348 118.302490,227.909775 
	C114.418900,224.642044 111.626640,222.292557 108.763512,219.599762 
z"/>
<path fill="#4E61C3" opacity="1.000000" stroke="none" 
	d="
M360.252655,224.629547 
	C362.120300,227.801117 364.302429,228.133438 367.174469,226.653809 
	C368.725220,225.854889 370.590607,225.666626 372.843231,225.060471 
	C371.181519,230.765778 368.163544,232.639465 362.930389,232.071136 
	C358.187531,231.556061 354.939697,227.989700 354.670959,223.001587 
	C354.424713,218.431488 357.698669,214.228592 362.257660,213.262253 
	C367.022156,212.252365 370.957001,214.457932 372.874634,219.861755 
	C370.855713,219.547256 369.113739,219.577194 367.614624,218.988586 
	C362.048920,216.803329 360.280121,217.975937 360.252655,224.629547 
z"/>
<path fill="#4C5EBF" opacity="1.000000" stroke="none" 
	d="
M234.184448,220.114197 
	C234.186218,218.645813 233.859146,217.482742 234.263031,216.693924 
	C234.943176,215.365601 236.087326,214.274857 237.036316,213.084183 
	C237.876572,214.216309 239.176483,215.248398 239.449707,216.503922 
	C239.863220,218.404099 239.607117,220.460999 239.553864,222.449142 
	C239.472046,225.503601 239.098251,228.638504 243.743454,228.543335 
	C244.274841,228.532455 245.329590,229.941895 245.244202,230.570969 
	C245.154388,231.232666 244.072723,232.053207 243.275574,232.279221 
	C236.622208,234.165710 234.188629,232.328766 234.184280,225.561859 
	C234.183228,223.903839 234.184204,222.245804 234.184448,220.114197 
z"/>
<path fill="#4C5EBF" opacity="1.000000" stroke="none" 
	d="
M335.156555,213.085785 
	C336.274445,213.628723 337.570618,214.162628 337.590607,214.740662 
	C337.768829,219.896591 337.811035,225.063202 337.642151,230.218460 
	C337.617676,230.965271 336.323090,232.157379 335.507263,232.257767 
	C334.648651,232.363419 332.857178,231.417496 332.849854,230.911209 
	C332.768677,225.285400 332.926910,219.654709 333.139465,214.029816 
	C333.151978,213.699203 334.184937,213.407181 335.156555,213.085785 
z"/>
<path fill="#5063C7" opacity="1.000000" stroke="none" 
	d="
M142.187683,232.016495 
	C141.396667,226.179108 140.964493,220.422318 140.746918,214.657425 
	C140.728851,214.178665 142.222275,213.167206 142.905182,213.254089 
	C143.827194,213.371384 145.369995,214.287491 145.392349,214.906158 
	C145.582764,220.178040 145.564438,225.463226 145.354858,230.734329 
	C145.335419,231.223557 143.561676,231.643082 142.187683,232.016495 
z"/>
<path fill="#0D0B38" opacity="1.000000" stroke="none" 
	d="
M540.472046,85.391258 
	C551.135132,77.525284 562.935974,73.788284 575.644897,72.998779 
	C594.464233,71.829681 612.550659,75.208359 629.429016,83.614021 
	C655.143372,96.420174 667.211426,118.196571 668.979614,146.203720 
	C669.752869,158.451202 668.413208,170.627853 663.821045,182.023148 
	C661.127014,188.708160 657.592529,195.412216 652.993958,200.898987 
	C642.797974,213.064438 640.577942,226.383682 645.066040,241.064484 
	C646.345459,245.249786 645.659546,247.109848 641.458252,248.232788 
	C637.612610,249.260681 633.900940,250.825684 630.190308,252.304840 
	C628.631714,252.926147 627.227844,253.935730 625.753662,254.768799 
	C625.851562,255.264038 625.949524,255.759277 626.047424,256.254517 
	C627.825439,256.346710 629.623413,256.653595 631.377563,256.489960 
	C636.183044,256.041656 640.959778,255.236450 645.770752,254.928406 
	C647.139404,254.840790 649.366821,255.583450 649.874023,256.604340 
	C654.094482,265.098602 658.017151,273.741302 661.976074,282.363800 
	C662.219482,282.893951 662.007751,283.633118 662.007751,284.720947 
	C627.694153,284.720947 593.569092,284.720947 557.783020,284.720947 
	C561.940796,279.328400 564.971252,274.623688 568.780212,270.668823 
	C572.842590,266.450836 573.076904,262.745605 569.834167,258.015869 
	C568.089905,255.471802 566.466064,254.561310 563.355286,254.790985 
	C554.559937,255.440414 545.735046,255.760971 536.916138,256.003601 
	C526.963440,256.277435 522.217468,251.688019 522.785889,241.865616 
	C523.076111,236.849792 522.512085,232.676559 518.014221,229.716278 
	C517.251343,229.214218 516.419983,228.172424 516.371033,227.336044 
	C516.093872,222.603989 516.262756,217.836914 515.794556,213.130035 
	C515.642273,211.599106 514.075928,210.178955 513.049561,208.786957 
	C512.808411,208.459946 512.134033,208.451889 511.658691,208.298172 
	C498.743774,204.121552 498.455688,203.413391 504.461670,190.935974 
	C508.362030,182.832886 512.116577,174.656326 516.191895,166.642548 
	C517.652405,163.770554 517.775513,161.721344 514.790222,160.021912 
	C510.308350,157.470551 509.200684,153.626190 509.832031,148.644150 
	C512.631592,126.552864 518.635315,105.898529 535.242676,89.804459 
	C536.791870,88.303154 538.528015,86.994766 540.472046,85.391258 
M652.550781,128.123047 
	C652.550781,128.123047 652.383972,127.885277 652.157410,127.226013 
	C649.447937,124.792023 646.738403,122.358025 643.629089,119.226807 
	C642.278870,114.735023 640.928711,110.243240 639.343689,105.080437 
	C635.047546,100.923897 630.751343,96.767365 626.050781,92.057671 
	C618.484253,86.302162 609.826416,86.203712 600.118042,87.083611 
	C595.766907,88.463142 591.213684,89.421402 587.138489,91.376167 
	C584.588074,92.599533 582.761719,93.455597 579.840515,92.332489 
	C566.723816,87.289513 552.554871,90.677071 543.556213,101.461914 
	C536.165833,110.319290 531.618225,120.088509 538.496948,131.605591 
	C538.979431,132.413376 538.761658,133.843994 538.475281,134.875549 
	C534.508484,149.163223 538.369385,156.059647 553.834900,160.839157 
	C560.904358,161.198669 567.973877,161.558182 575.621887,162.334091 
	C581.033813,165.015778 586.445740,167.697464 592.242859,170.883514 
	C595.175842,174.261795 598.108826,177.640060 601.322388,181.623337 
	C605.540466,185.109055 609.758606,188.594788 614.637817,192.424149 
	C626.440613,196.634750 638.248840,189.026184 642.180359,177.469803 
	C642.796631,175.658417 644.350098,173.801285 645.978516,172.760941 
	C653.650146,167.859985 657.962830,161.004745 659.225159,151.276154 
	C658.834778,147.169739 658.444336,143.063324 658.020386,138.217819 
	C656.220520,134.944290 654.420593,131.670761 652.550781,128.123047 
M600.473572,212.389908 
	C591.803894,226.418884 579.605713,235.332642 563.213379,238.294693 
	C558.641113,239.120895 554.053650,240.050140 549.634399,241.443466 
	C547.873840,241.998535 546.550171,243.939148 545.027588,245.249023 
	C546.938049,246.080643 549.064148,247.924881 550.722290,247.571747 
	C558.653381,245.882660 566.737244,244.311874 574.245972,241.369736 
	C587.972961,235.991165 598.247803,226.684875 603.267456,211.717514 
	C603.700195,210.067474 604.132935,208.417450 604.565735,206.767410 
	C604.194153,206.622452 603.822510,206.477478 603.450928,206.332520 
	C602.611145,208.186554 601.771362,210.040604 600.473572,212.389908 
M636.876770,271.457489 
	C631.995483,270.424042 627.114197,269.390625 621.836914,268.273315 
	C623.229919,267.036133 624.368896,266.024567 625.507935,265.012970 
	C625.383362,264.614777 625.258789,264.216614 625.134155,263.818420 
	C619.829529,264.577606 614.504822,265.219635 609.224670,266.121979 
	C600.055115,267.689026 590.856384,269.171936 581.803101,271.265930 
	C579.777161,271.734528 578.301270,274.581482 576.572083,276.333466 
	C578.690613,277.184753 580.797241,278.068207 582.937683,278.860260 
	C583.366760,279.019012 583.924316,278.811523 584.423157,278.803406 
	C602.199646,278.513214 619.976379,278.237091 637.752441,277.922760 
	C639.440308,277.892914 641.123962,277.626831 642.809570,277.470398 
	C642.975403,276.977844 643.141235,276.485291 643.307129,275.992737 
	C641.391968,274.596741 639.476868,273.200745 636.876770,271.457489 
M548.733215,182.163101 
	C548.982971,180.663742 549.232727,179.164383 549.454407,177.833511 
	C544.217834,177.833511 539.613892,178.192429 535.090393,177.742691 
	C529.429199,177.179871 526.952637,178.285873 525.411560,183.685196 
	C524.349304,187.407135 524.678650,190.434448 526.621826,194.576416 
	C530.627441,203.114609 532.113403,212.830688 534.700439,222.044083 
	C535.012634,223.155762 535.723694,224.155457 536.249878,225.207062 
	C536.801880,219.811356 536.305420,214.709442 536.105957,209.595932 
	C536.049561,208.150864 536.472107,205.729828 537.342041,205.370255 
	C541.283508,203.740997 541.207092,200.676529 540.719971,197.474838 
	C540.056030,193.111282 541.373230,189.690796 544.729858,186.859741 
	C546.108582,185.696838 547.168701,184.156021 548.733215,182.163101 
z"/>
<path fill="#24224A" opacity="1.000000" stroke="none" 
	d="
M424.446411,162.266174 
	C425.680511,158.814041 426.779846,155.729904 427.879211,152.645782 
	C428.263031,152.626633 428.646851,152.607483 429.030670,152.588348 
	C430.908325,158.147720 432.785980,163.707092 434.809723,169.699066 
	C430.437988,169.699066 426.541870,169.699066 422.053528,169.699066 
	C422.842896,167.229477 423.577271,164.931839 424.446411,162.266174 
z"/>
<path fill="#131542" opacity="1.000000" stroke="none" 
	d="
M275.697723,222.888733 
	C274.975952,226.457611 273.051849,228.699860 269.807434,227.483017 
	C268.159851,226.865051 266.131073,224.092026 266.323486,222.548630 
	C266.559845,220.652359 268.660828,217.970322 270.445984,217.503860 
	C273.838867,216.617310 275.251068,219.435974 275.697723,222.888733 
z"/>
<path fill="#131542" opacity="1.000000" stroke="none" 
	d="
M202.873764,222.127792 
	C203.327179,218.511124 205.239639,216.884384 208.378754,217.428345 
	C211.648529,217.994919 212.847427,220.731964 211.944565,223.446396 
	C211.365158,225.188431 209.191162,227.317627 207.483429,227.566284 
	C204.404099,228.014603 202.712906,225.785339 202.873764,222.127792 
z"/>
<path fill="#5266CC" opacity="1.000000" stroke="none" 
	d="
M637.219238,271.631104 
	C639.476868,273.200745 641.391968,274.596741 643.307129,275.992737 
	C643.141235,276.485291 642.975403,276.977844 642.809570,277.470398 
	C641.123962,277.626831 639.440308,277.892914 637.752441,277.922760 
	C619.976379,278.237091 602.199646,278.513214 584.423157,278.803406 
	C583.924316,278.811523 583.366760,279.019012 582.937683,278.860260 
	C580.797241,278.068207 578.690613,277.184753 576.572083,276.333496 
	C578.301270,274.581482 579.777161,271.734528 581.803101,271.265930 
	C590.856384,269.171936 600.055115,267.689026 609.224670,266.121979 
	C614.504822,265.219635 619.829529,264.577606 625.134155,263.818420 
	C625.258789,264.216614 625.383362,264.614777 625.507935,265.012970 
	C624.368896,266.024567 623.229919,267.036133 621.836914,268.273315 
	C627.114197,269.390625 631.995483,270.424042 637.219238,271.631104 
z"/>
<path fill="#5367CE" opacity="1.000000" stroke="none" 
	d="
M548.553467,182.475098 
	C547.168701,184.156021 546.108582,185.696838 544.729858,186.859741 
	C541.373230,189.690796 540.056030,193.111282 540.719971,197.474838 
	C541.207092,200.676529 541.283508,203.740997 537.342041,205.370255 
	C536.472107,205.729828 536.049561,208.150864 536.105957,209.595932 
	C536.305420,214.709442 536.801880,219.811356 536.249878,225.207062 
	C535.723694,224.155457 535.012634,223.155762 534.700439,222.044083 
	C532.113403,212.830688 530.627441,203.114609 526.621826,194.576416 
	C524.678650,190.434448 524.349304,187.407135 525.411560,183.685196 
	C526.952637,178.285873 529.429199,177.179871 535.090393,177.742691 
	C539.613892,178.192429 544.217834,177.833511 549.454407,177.833511 
	C549.232727,179.164383 548.982971,180.663742 548.553467,182.475098 
z"/>
<path fill="#5063C7" opacity="1.000000" stroke="none" 
	d="
M602.832886,212.104019 
	C598.247803,226.684875 587.972961,235.991165 574.245972,241.369736 
	C566.737244,244.311874 558.653381,245.882660 550.722290,247.571747 
	C549.064148,247.924881 546.938049,246.080643 545.027588,245.249023 
	C546.550171,243.939148 547.873840,241.998535 549.634399,241.443466 
	C554.053650,240.050140 558.641113,239.120895 563.213379,238.294693 
	C579.605713,235.332642 591.803894,226.418884 601.177063,212.201721 
	C602.198059,212.043701 602.515503,212.073853 602.832886,212.104019 
z"/>
<path fill="#1A8CA9" opacity="1.000000" stroke="none" 
	d="
M552.922180,160.533371 
	C538.369385,156.059647 534.508484,149.163223 538.475281,134.875549 
	C538.761658,133.843994 538.979431,132.413376 538.496948,131.605591 
	C531.618225,120.088509 536.165833,110.319290 543.556213,101.461914 
	C552.554871,90.677071 566.723816,87.289513 579.840515,92.332489 
	C582.761719,93.455597 584.588074,92.599533 587.138489,91.376167 
	C591.213684,89.421402 595.766907,88.463142 600.538757,87.414986 
	C600.961182,88.100304 600.962891,88.454239 600.586975,88.897453 
	C595.543823,91.031075 590.927490,93.201805 586.184814,95.047989 
	C584.623840,95.655632 582.444275,96.089081 581.041931,95.474327 
	C563.587463,87.822632 543.230713,97.144073 538.839050,115.586082 
	C537.822144,119.856644 538.960144,125.095886 540.538940,129.358932 
	C541.492798,131.934555 541.905334,133.611969 540.886292,136.113495 
	C537.172241,145.230423 540.083252,152.337006 548.966614,156.735764 
	C550.401245,157.446152 551.642395,158.547180 552.954956,159.645172 
	C552.924561,160.059448 552.919678,160.296341 552.922180,160.533371 
z"/>
<path fill="#9C2479" opacity="1.000000" stroke="none" 
	d="
M658.974670,152.007385 
	C657.962830,161.004745 653.650146,167.859985 645.978516,172.760941 
	C644.350098,173.801285 642.796631,175.658417 642.180359,177.469803 
	C638.248840,189.026184 626.440613,196.634750 614.317932,191.876099 
	C614.013000,190.826584 614.028015,190.325089 614.345215,189.957932 
	C628.399597,192.626785 636.087402,188.015518 640.221680,174.883347 
	C640.634521,173.571976 641.419312,171.771576 642.478699,171.365707 
	C651.030579,168.089279 654.387878,160.883087 657.207397,152.877884 
	C657.970764,152.517685 658.472717,152.262527 658.974670,152.007385 
z"/>
<path fill="#256D92" opacity="1.000000" stroke="none" 
	d="
M600.964600,88.808182 
	C600.962891,88.454239 600.961182,88.100304 600.956909,87.481430 
	C609.826416,86.203712 618.484253,86.302162 625.961792,92.526611 
	C625.579468,93.345673 625.286194,93.695793 624.637878,93.963211 
	C617.022278,89.835152 609.172180,88.499847 600.964600,88.808182 
z"/>
<path fill="#556096" opacity="1.000000" stroke="none" 
	d="
M591.857666,170.379135 
	C586.445740,167.697464 581.033813,165.015778 575.449707,161.872986 
	C575.524292,160.912552 575.771118,160.413239 576.399292,159.941971 
	C582.311340,162.946899 587.841919,165.923752 593.065186,169.085419 
	C592.457825,169.639862 592.157715,170.009506 591.857666,170.379135 
z"/>
<path fill="#41719F" opacity="1.000000" stroke="none" 
	d="
M576.017944,159.913910 
	C575.771118,160.413239 575.524292,160.912552 575.160400,161.664764 
	C567.973877,161.558182 560.904358,161.198669 553.378540,160.686264 
	C552.919678,160.296341 552.924561,160.059448 553.272827,159.427551 
	C561.078491,159.326202 568.548157,159.620056 576.017944,159.913910 
z"/>
<path fill="#8E3584" opacity="1.000000" stroke="none" 
	d="
M614.042969,189.823608 
	C614.028015,190.325089 614.013000,190.826584 613.987366,191.704285 
	C609.758606,188.594788 605.540466,185.109055 601.432007,181.115158 
	C601.773804,180.246140 602.006042,179.885300 602.483643,179.769257 
	C606.500305,183.283920 610.271667,186.553757 614.042969,189.823608 
z"/>
<path fill="#41719F" opacity="1.000000" stroke="none" 
	d="
M624.992920,94.045906 
	C625.286194,93.695793 625.579468,93.345673 626.163940,92.803192 
	C630.751343,96.767365 635.047546,100.923897 638.994080,105.503204 
	C638.333496,105.978149 638.022583,106.030334 637.470703,105.871841 
	C633.150818,101.789421 629.071838,97.917664 624.992920,94.045906 
z"/>
<path fill="#556096" opacity="1.000000" stroke="none" 
	d="
M637.711548,106.082520 
	C638.022583,106.030334 638.333496,105.978149 639.111511,105.838715 
	C640.928711,110.243240 642.278870,114.735023 643.636963,119.851257 
	C643.283997,120.737289 642.923157,120.998871 642.225037,121.080948 
	C640.495667,115.961807 639.103638,111.022163 637.711548,106.082520 
z"/>
<path fill="#764086" opacity="1.000000" stroke="none" 
	d="
M602.238281,179.524460 
	C602.006042,179.885300 601.773804,180.246140 601.291687,180.812653 
	C598.108826,177.640060 595.175842,174.261795 592.050293,170.631317 
	C592.157715,170.009506 592.457825,169.639862 593.325317,169.259308 
	C596.674561,172.673752 599.456421,176.099106 602.238281,179.524460 
z"/>
<path fill="#952C7E" opacity="1.000000" stroke="none" 
	d="
M659.099915,151.641754 
	C658.472717,152.262527 657.970764,152.517685 657.209106,152.418350 
	C656.831848,148.197098 656.714355,144.330368 656.790649,140.167358 
	C657.340881,139.566345 657.697388,139.261612 658.053955,138.956879 
	C658.444336,143.063324 658.834778,147.169739 659.099915,151.641754 
z"/>
<path fill="#624987" opacity="1.000000" stroke="none" 
	d="
M642.562378,121.260452 
	C642.923157,120.998871 643.283997,120.737289 643.836914,120.199875 
	C646.738403,122.358025 649.447937,124.792023 651.767273,127.644325 
	C651.044861,128.129593 650.712585,128.196548 650.123657,128.101669 
	C647.432129,125.713379 644.997253,123.486923 642.562378,121.260452 
z"/>
<path fill="#764086" opacity="1.000000" stroke="none" 
	d="
M658.037170,138.587341 
	C657.697388,139.261612 657.340881,139.566345 656.617676,139.849487 
	C654.623779,136.390701 652.996582,132.953506 651.689209,129.244385 
	C652.212891,128.780716 652.416748,128.588974 652.620667,128.397232 
	C654.420593,131.670761 656.220520,134.944290 658.037170,138.587341 
z"/>
<path fill="#486193" opacity="1.000000" stroke="none" 
	d="
M603.050171,211.910767 
	C602.515503,212.073853 602.198059,212.043701 601.406006,211.954102 
	C601.771362,210.040604 602.611145,208.186554 603.450928,206.332520 
	C603.822510,206.477478 604.194153,206.622452 604.565735,206.767410 
	C604.132935,208.417450 603.700195,210.067474 603.050171,211.910767 
z"/>
<path fill="#764086" opacity="1.000000" stroke="none" 
	d="
M650.380310,128.263504 
	C650.712585,128.196548 651.044861,128.129593 651.880554,127.973953 
	C652.383972,127.885277 652.550781,128.123047 652.585693,128.260132 
	C652.416748,128.588974 652.212891,128.780716 651.527832,129.033783 
	C650.824524,128.817917 650.602417,128.540710 650.380310,128.263504 
z"/>
<path fill="#131542" opacity="1.000000" stroke="none" 
	d="
M650.123657,128.101669 
	C650.602417,128.540710 650.824524,128.817917 651.208008,129.305710 
	C652.996582,132.953506 654.623779,136.390701 656.423950,140.145752 
	C656.714355,144.330368 656.831848,148.197098 656.947632,152.523376 
	C654.387878,160.883087 651.030579,168.089279 642.478699,171.365707 
	C641.419312,171.771576 640.634521,173.571976 640.221680,174.883347 
	C636.087402,188.015518 628.399597,192.626785 614.345215,189.957916 
	C610.271667,186.553757 606.500305,183.283920 602.483643,179.769257 
	C599.456421,176.099106 596.674561,172.673752 593.632690,169.074524 
	C587.841919,165.923752 582.311340,162.946899 576.399292,159.941971 
	C568.548157,159.620056 561.078491,159.326202 553.290894,159.250000 
	C551.642395,158.547180 550.401245,157.446152 548.966614,156.735764 
	C540.083252,152.337006 537.172241,145.230423 540.886292,136.113495 
	C541.905334,133.611969 541.492798,131.934555 540.538940,129.358932 
	C538.960144,125.095886 537.822144,119.856644 538.839050,115.586082 
	C543.230713,97.144073 563.587463,87.822632 581.041931,95.474327 
	C582.444275,96.089081 584.623840,95.655632 586.184814,95.047989 
	C590.927490,93.201805 595.543823,91.031075 600.586914,88.897453 
	C609.172180,88.499847 617.022278,89.835152 624.637878,93.963196 
	C629.071838,97.917664 633.150818,101.789421 637.470642,105.871849 
	C639.103638,111.022163 640.495667,115.961807 642.225037,121.080963 
	C644.997253,123.486923 647.432129,125.713379 650.123657,128.101669 
M546.010010,136.004013 
	C546.010010,136.004013 545.993591,136.026123 545.266174,136.053421 
	C545.183960,136.695847 545.101807,137.338287 545.008606,138.005463 
	C545.008606,138.005463 544.992798,138.027390 544.215698,138.117264 
	C544.075195,141.101669 543.934692,144.086090 543.926697,147.759460 
	C546.618896,150.045181 549.149597,152.586716 552.106506,154.452972 
	C552.939697,154.978836 555.022217,153.525421 556.503357,152.995651 
	C556.503357,152.995651 556.477356,152.976471 556.446289,153.929031 
	C557.924316,154.352402 559.383484,155.045410 560.883728,155.149902 
	C565.911499,155.500046 570.953857,155.640060 576.644836,156.198013 
	C580.325684,157.558960 584.006592,158.919907 588.173035,160.752106 
	C592.282593,163.888702 596.392151,167.025284 600.778564,170.820602 
	C603.433960,174.238052 606.089355,177.655487 609.132446,181.651550 
	C612.423584,183.409561 615.714722,185.167557 619.661194,187.200363 
	C628.177307,187.761505 634.023926,183.655655 636.312744,174.858154 
	C637.335449,170.927414 637.698975,167.377579 643.056274,166.954559 
	C644.920898,166.807312 646.832581,164.412643 648.305908,162.688187 
	C652.671326,157.578751 653.763794,151.472046 653.127625,144.156662 
	C651.096008,139.763092 649.064453,135.369522 646.800842,130.342072 
	C642.860291,127.588463 638.919739,124.834862 634.622803,121.610252 
	C638.298462,116.073807 638.008545,113.066277 632.962158,106.068748 
	C627.986023,102.337921 623.009949,98.607101 617.252686,94.759590 
	C610.733948,94.190536 604.178894,92.930649 597.707825,93.270203 
	C592.496521,93.543663 587.971741,96.512100 585.299866,101.999153 
	C584.168579,101.325081 583.028992,100.664421 581.907227,99.974892 
	C566.509277,90.510460 546.012024,99.258820 541.778076,117.871887 
	C542.521729,121.090523 543.265442,124.309158 544.173035,127.672951 
	C544.173035,127.672951 544.473389,127.991325 544.827576,128.682770 
	C546.551331,129.965469 548.275024,131.248169 549.621826,132.893234 
	C548.742493,133.440384 547.863098,133.987534 546.255005,134.639755 
	C546.177490,135.086288 546.099915,135.532806 546.010010,136.004013 
z"/>
<path fill="#121440" opacity="1.000000" stroke="none" 
	d="
M546.983704,134.534668 
	C547.863098,133.987534 548.742493,133.440384 550.176086,132.592468 
	C553.844360,130.800781 556.958374,129.309891 560.072327,127.818993 
	C559.941711,127.377609 559.811035,126.936218 559.680420,126.494835 
	C554.611389,126.993660 549.542419,127.492493 544.473389,127.991318 
	C544.473389,127.991325 544.173035,127.672951 544.430115,127.247414 
	C544.377869,123.645111 544.068604,120.468353 543.993530,117.070709 
	C550.566772,99.465988 569.707275,92.633896 584.514160,104.852943 
	C586.942200,106.856636 588.079102,105.943497 588.282593,102.736664 
	C590.428772,100.622948 592.133545,98.193275 594.464172,97.108521 
	C602.231812,93.493225 610.138489,94.632912 618.156189,97.690567 
	C622.876831,101.304436 627.362732,104.693954 632.006714,108.405113 
	C636.252869,116.019882 636.252869,116.019882 630.058655,122.138313 
	C631.799561,122.715759 633.289795,123.210075 634.949951,123.948586 
	C638.694519,126.869080 642.269287,129.545380 645.972778,132.538788 
	C647.790039,136.903534 649.478516,140.951187 651.143921,145.439102 
	C651.059265,147.705307 651.166565,149.555664 650.906494,151.352890 
	C649.830872,158.788071 644.707642,165.376129 639.506653,165.236221 
	C635.674194,165.133133 635.222839,166.786438 635.005554,169.924393 
	C634.350708,179.384949 629.433167,184.220825 619.596924,185.095963 
	C616.547058,183.626633 613.839966,182.281403 610.958008,180.646347 
	C607.958923,176.861496 605.134827,173.366486 602.183472,169.552185 
	C597.728882,165.793518 593.401550,162.354126 588.817261,158.682251 
	C584.376221,156.964752 580.192139,155.479736 575.606689,153.875031 
	C568.962646,153.495712 562.720032,153.236099 556.477356,152.976471 
	C556.477356,152.976471 556.503357,152.995651 556.174561,152.815338 
	C552.451477,150.687881 549.057068,148.740768 545.583496,146.361328 
	C545.333801,143.295135 545.163330,140.661255 544.992798,138.027390 
	C544.992798,138.027390 545.008606,138.005463 545.399902,138.009674 
	C545.858704,137.351303 545.926147,136.688721 545.993591,136.026123 
	C545.993591,136.026123 546.010010,136.004013 546.409668,135.976639 
	C546.867432,135.477722 546.925598,135.006195 546.983704,134.534668 
M639.116821,131.178925 
	C634.454224,129.363632 629.791626,127.548325 624.420105,125.420815 
	C622.111877,125.491219 619.783875,125.771942 617.502625,125.556503 
	C616.033630,125.417763 614.633423,124.550240 613.202454,124.009369 
	C614.206543,122.679878 614.956665,120.612419 616.263550,120.162704 
	C619.826843,118.936478 623.606262,118.288948 627.336060,117.610001 
	C630.821838,116.975471 632.228210,115.298813 629.967529,112.227859 
	C627.942688,109.477348 625.437683,107.080284 622.716797,104.060364 
	C619.867004,102.612450 617.017212,101.164543 613.499207,99.335106 
	C608.274902,99.228752 602.914978,98.343323 597.862427,99.223213 
	C592.191223,100.210854 591.556091,102.641930 592.304199,108.309601 
	C592.677063,111.134453 591.820068,114.121628 591.519348,117.035378 
	C589.405457,115.187668 587.291504,113.339966 584.990845,110.873940 
	C579.506226,103.713120 572.236694,100.666260 563.476929,102.664581 
	C555.407104,104.505516 550.114075,109.923576 547.721008,117.844788 
	C546.133240,123.100685 547.730408,124.396225 553.016968,123.813728 
	C557.563049,123.312805 562.209961,123.727959 567.302124,124.161842 
	C568.278137,125.718132 569.254150,127.274429 570.230103,128.830734 
	C568.565430,129.642914 566.947266,130.574951 565.226929,131.243820 
	C560.844116,132.947784 555.987305,133.892654 552.182373,136.432800 
	C550.219849,137.742981 548.899597,142.108444 549.512512,144.530762 
	C550.016113,146.520538 553.707031,147.870041 556.180420,149.115417 
	C557.210205,149.633911 558.747009,149.145462 560.960815,149.186432 
	C567.506714,149.641312 574.052673,150.096207 580.967407,150.895203 
	C581.278198,151.032211 581.588928,151.169205 582.481567,151.679733 
	C587.467346,154.228561 592.453186,156.777405 597.813660,159.896301 
	C602.396667,164.954025 606.979736,170.011765 611.879883,175.701523 
	C614.575562,179.320953 618.068542,182.798355 622.584045,181.298309 
	C625.708862,180.260208 628.772034,177.001343 630.388855,173.953049 
	C632.614929,169.755936 632.101685,164.940445 629.309692,160.315628 
	C629.309692,160.315628 629.154114,159.963654 629.016174,159.248413 
	C627.975098,157.177414 626.689392,155.185730 625.982605,153.006317 
	C625.542847,151.649994 625.978882,150.009628 626.021851,148.496750 
	C627.558411,148.662216 629.319092,148.412231 630.578613,149.091431 
	C632.425354,150.087311 633.913513,151.748169 635.830750,153.587250 
	C636.068481,153.851746 636.306274,154.116257 636.707947,155.098267 
	C637.594727,157.345535 638.481567,159.592819 639.375427,161.857986 
	C645.803711,158.899521 647.872192,153.781570 646.959656,143.262741 
	C644.459778,139.439087 641.959839,135.615417 639.116821,131.178925 
z"/>
<path fill="#1A8CA9" opacity="1.000000" stroke="none" 
	d="
M588.127808,103.036858 
	C588.079102,105.943497 586.942200,106.856636 584.514160,104.852943 
	C569.707275,92.633896 550.566772,99.465988 543.558105,116.981239 
	C542.596619,117.076721 542.304871,117.040802 542.013123,117.004875 
	C546.012024,99.258820 566.509277,90.510460 581.907227,99.974892 
	C583.028992,100.664421 584.168579,101.325081 585.854248,102.246323 
	C586.981689,102.674622 587.554749,102.855743 588.127808,103.036858 
z"/>
<path fill="#952C7E" opacity="1.000000" stroke="none" 
	d="
M619.939697,185.220047 
	C629.433167,184.220825 634.350708,179.384949 635.005554,169.924393 
	C635.222839,166.786438 635.674194,165.133133 639.506653,165.236221 
	C644.707642,165.376129 649.830872,158.788071 650.906494,151.352890 
	C651.166565,149.555664 651.059265,147.705307 651.466797,145.430054 
	C652.244019,144.968872 652.675415,144.957016 653.106750,144.945129 
	C653.763794,151.472046 652.671326,157.578751 648.305908,162.688187 
	C646.832581,164.412643 644.920898,166.807312 643.056274,166.954559 
	C637.698975,167.377579 637.335449,170.927414 636.312744,174.858154 
	C634.023926,183.655655 628.177307,187.761505 619.437866,186.842957 
	C619.456238,186.063705 619.697937,185.641876 619.939697,185.220047 
z"/>
<path fill="#1E91AF" opacity="1.000000" stroke="none" 
	d="
M588.282593,102.736664 
	C587.554749,102.855743 586.981689,102.674622 586.212280,102.259476 
	C587.971741,96.512100 592.496521,93.543663 597.707825,93.270203 
	C604.178894,92.930649 610.733948,94.190536 617.641602,95.250092 
	C617.994141,96.315804 617.957825,96.891014 617.921509,97.466225 
	C610.138489,94.632912 602.231812,93.493225 594.464172,97.108521 
	C592.133545,98.193275 590.428772,100.622948 588.282593,102.736664 
z"/>
<path fill="#41719F" opacity="1.000000" stroke="none" 
	d="
M618.156189,97.690567 
	C617.957825,96.891014 617.994141,96.315804 618.032166,95.308434 
	C623.009949,98.607101 627.986023,102.337921 632.903992,106.661766 
	C632.513428,107.531013 632.181091,107.807243 631.848694,108.083481 
	C627.362732,104.693954 622.876831,101.304436 618.156189,97.690567 
z"/>
<path fill="#1E91AF" opacity="1.000000" stroke="none" 
	d="
M544.650513,128.337036 
	C549.542419,127.492493 554.611389,126.993660 559.680420,126.494835 
	C559.811035,126.936218 559.941711,127.377609 560.072327,127.818993 
	C556.958374,129.309891 553.844360,130.800781 550.364563,132.411285 
	C548.275024,131.248169 546.551331,129.965469 544.650513,128.337036 
z"/>
<path fill="#624987" opacity="1.000000" stroke="none" 
	d="
M589.074219,158.914734 
	C593.401550,162.354126 597.728882,165.793518 601.730591,169.625397 
	C601.103943,170.065903 600.802795,170.113892 600.501709,170.161865 
	C596.392151,167.025284 592.282593,163.888702 588.205994,160.334473 
	C588.517395,159.582809 588.795776,159.248779 589.074219,158.914734 
z"/>
<path fill="#556096" opacity="1.000000" stroke="none" 
	d="
M632.006714,108.405106 
	C632.181091,107.807243 632.513428,107.531013 633.015381,106.973663 
	C638.008545,113.066277 638.298462,116.073807 634.756897,122.252075 
	C634.854004,123.164070 634.817017,123.434235 634.780090,123.704391 
	C633.289795,123.210075 631.799561,122.715759 630.058655,122.138313 
	C636.252869,116.019882 636.252869,116.019882 632.006714,108.405106 
z"/>
<path fill="#41719F" opacity="1.000000" stroke="none" 
	d="
M556.461792,153.452759 
	C562.720032,153.236099 568.962646,153.495712 575.606689,154.186264 
	C576.002319,155.031631 575.996460,155.446060 575.990601,155.860504 
	C570.953857,155.640060 565.911499,155.500046 560.883728,155.149902 
	C559.383484,155.045410 557.924316,154.352402 556.461792,153.452759 
z"/>
<path fill="#1E8BAA" opacity="1.000000" stroke="none" 
	d="
M545.662720,146.793655 
	C549.057068,148.740768 552.451477,150.687881 556.188721,152.807419 
	C555.022217,153.525421 552.939697,154.978836 552.106506,154.452972 
	C549.149597,152.586716 546.618896,150.045181 544.328857,147.353104 
	C545.041565,146.895721 545.352112,146.844696 545.662720,146.793655 
z"/>
<path fill="#486193" opacity="1.000000" stroke="none" 
	d="
M576.317749,156.029266 
	C575.996460,155.446060 576.002319,155.031631 576.008057,154.305954 
	C580.192139,155.479736 584.376221,156.964752 588.817261,158.682251 
	C588.795776,159.248779 588.517395,159.582809 587.963196,160.098846 
	C584.006592,158.919907 580.325684,157.558960 576.317749,156.029266 
z"/>
<path fill="#624987" opacity="1.000000" stroke="none" 
	d="
M634.949951,123.948586 
	C634.817017,123.434235 634.854004,123.164070 634.935059,122.487579 
	C638.919739,124.834862 642.860291,127.588463 646.670227,130.815613 
	C646.307739,131.599976 646.075867,131.910828 645.843994,132.221680 
	C642.269287,129.545380 638.694519,126.869080 634.949951,123.948586 
z"/>
<path fill="#764086" opacity="1.000000" stroke="none" 
	d="
M645.972778,132.538773 
	C646.075867,131.910828 646.307739,131.599976 646.786255,131.132538 
	C649.064453,135.369522 651.096008,139.763092 653.117188,144.550903 
	C652.675415,144.957016 652.244019,144.968872 651.489868,144.989777 
	C649.478516,140.951187 647.790039,136.903534 645.972778,132.538773 
z"/>
<path fill="#764086" opacity="1.000000" stroke="none" 
	d="
M600.640137,170.491241 
	C600.802795,170.113892 601.103943,170.065903 601.857910,169.944672 
	C605.134827,173.366486 607.958923,176.861496 610.560059,180.667969 
	C609.806274,181.010590 609.275513,181.041763 608.744751,181.072922 
	C606.089355,177.655487 603.433960,174.238052 600.640137,170.491241 
z"/>
<path fill="#8E3584" opacity="1.000000" stroke="none" 
	d="
M608.938599,181.362244 
	C609.275513,181.041763 609.806274,181.010590 610.734985,180.957794 
	C613.839966,182.281403 616.547058,183.626633 619.596863,185.095947 
	C619.697937,185.641876 619.456238,186.063705 619.110229,186.705551 
	C615.714722,185.167557 612.423584,183.409561 608.938599,181.362244 
z"/>
<path fill="#1E91AF" opacity="1.000000" stroke="none" 
	d="
M545.583496,146.361328 
	C545.352112,146.844696 545.041565,146.895721 544.262573,147.008621 
	C543.934692,144.086090 544.075195,141.101669 544.604248,138.072327 
	C545.163330,140.661255 545.333801,143.295135 545.583496,146.361328 
z"/>
<path fill="#1E91AF" opacity="1.000000" stroke="none" 
	d="
M541.895630,117.438385 
	C542.304871,117.040802 542.596619,117.076721 543.323792,117.202118 
	C544.068604,120.468353 544.377869,123.645111 544.348145,127.174835 
	C543.265442,124.309158 542.521729,121.090523 541.895630,117.438385 
z"/>
<path fill="#1E91AF" opacity="1.000000" stroke="none" 
	d="
M545.629883,136.039764 
	C545.926147,136.688721 545.858704,137.351303 545.405396,137.997314 
	C545.101807,137.338287 545.183960,136.695847 545.629883,136.039764 
z"/>
<path fill="#1E91AF" opacity="1.000000" stroke="none" 
	d="
M546.619385,134.587204 
	C546.925598,135.006195 546.867432,135.477722 546.415894,135.964294 
	C546.099915,135.532806 546.177490,135.086288 546.619385,134.587204 
z"/>
<path fill="#1A8CA9" opacity="1.000000" stroke="none" 
	d="
M566.812317,123.738052 
	C562.209961,123.727959 557.563049,123.312805 553.016968,123.813728 
	C547.730408,124.396225 546.133240,123.100685 547.721008,117.844788 
	C550.114075,109.923576 555.407104,104.505516 563.476929,102.664581 
	C572.236694,100.666260 579.506226,103.713120 585.026978,111.672150 
	C584.975037,113.116478 584.886963,113.762604 584.532471,114.184013 
	C578.157959,105.474640 569.176331,102.471260 560.865601,106.134445 
	C554.476379,108.950653 549.671997,116.095924 550.469177,120.294731 
	C556.209595,120.811714 561.634399,121.300270 566.994873,122.275803 
	C566.891235,123.087875 566.851807,123.412964 566.812317,123.738052 
z"/>
<path fill="#1E8BAA" opacity="1.000000" stroke="none" 
	d="
M567.057251,123.949951 
	C566.851807,123.412964 566.891235,123.087875 567.356812,122.334251 
	C571.157593,123.209572 573.705566,125.279510 572.814758,129.274155 
	C571.973572,133.046188 568.666992,133.411911 565.460205,133.906937 
	C562.558533,134.354843 559.312378,134.579330 556.969788,136.077621 
	C554.605530,137.589767 553.165833,140.547333 551.321045,142.871628 
	C553.561584,144.198547 555.779907,145.565659 558.058838,146.822937 
	C558.601562,147.122360 559.346985,147.054489 560.006836,147.481903 
	C560.027466,148.243774 560.040344,148.679321 560.053223,149.114868 
	C558.747009,149.145462 557.210205,149.633911 556.180420,149.115417 
	C553.707031,147.870041 550.016113,146.520538 549.512512,144.530762 
	C548.899597,142.108444 550.219849,137.742981 552.182373,136.432800 
	C555.987305,133.892654 560.844116,132.947784 565.226929,131.243820 
	C566.947266,130.574951 568.565430,129.642914 570.230103,128.830719 
	C569.254150,127.274429 568.278137,125.718132 567.057251,123.949951 
z"/>
<path fill="#486193" opacity="1.000000" stroke="none" 
	d="
M623.144592,104.527267 
	C625.437683,107.080284 627.942688,109.477348 629.967529,112.227859 
	C632.228210,115.298813 630.821838,116.975471 627.336060,117.610001 
	C623.606262,118.288948 619.826843,118.936478 616.263550,120.162704 
	C614.956665,120.612419 614.206543,122.679878 613.202393,124.009354 
	C614.633423,124.550240 616.033630,125.417763 617.502625,125.556503 
	C619.783875,125.771942 622.111877,125.491219 624.744446,125.914833 
	C625.042847,126.858482 625.016907,127.308113 624.530396,127.799561 
	C621.238220,127.907471 618.335205,128.378616 615.600281,127.896584 
	C613.791565,127.577789 611.251648,126.183495 610.816223,124.736076 
	C610.361755,123.225372 611.518311,120.345970 612.896729,119.360741 
	C615.402893,117.569359 618.535400,116.558914 621.520691,115.565994 
	C623.568115,114.885017 625.808655,114.784920 628.978821,114.255486 
	C626.381104,111.072365 624.522034,108.794334 622.784363,106.019272 
	C622.985413,105.190582 623.065002,104.858925 623.144592,104.527267 
z"/>
<path fill="#2683A6" opacity="1.000000" stroke="none" 
	d="
M584.798828,114.408730 
	C584.886963,113.762604 584.975037,113.116478 585.120361,111.981308 
	C587.291504,113.339966 589.405457,115.187668 591.519348,117.035378 
	C591.820068,114.121628 592.677063,111.134453 592.304199,108.309601 
	C591.556091,102.641930 592.191223,100.210854 597.862427,99.223213 
	C602.914978,98.343323 608.274902,99.228752 613.770447,100.021912 
	C613.995728,101.038353 613.949707,101.368004 613.493408,101.576653 
	C611.131836,101.060364 609.097778,100.108559 607.246338,100.384140 
	C603.231628,100.981735 598.946899,101.573494 595.549683,103.522255 
	C594.374756,104.196251 595.390503,108.888382 595.603027,111.730370 
	C595.854309,115.090744 595.632568,118.471039 591.968750,119.569748 
	C587.858459,120.802361 586.089172,117.682465 584.798828,114.408730 
z"/>
<path fill="#8E3584" opacity="1.000000" stroke="none" 
	d="
M629.402222,160.687836 
	C632.101685,164.940445 632.614929,169.755936 630.388855,173.953049 
	C628.772034,177.001343 625.708862,180.260208 622.584045,181.298309 
	C618.068542,182.798355 614.575562,179.320953 612.187866,175.274017 
	C612.805664,174.772034 613.115417,174.697556 613.696899,174.827362 
	C616.652039,177.558090 619.427124,180.355865 623.492188,178.667908 
	C627.406677,177.042496 628.940247,173.489960 628.958374,169.435226 
	C628.970093,166.824142 628.481018,164.210815 628.512573,161.370483 
	C629.006653,160.990936 629.204407,160.839386 629.402222,160.687836 
z"/>
<path fill="#764086" opacity="1.000000" stroke="none" 
	d="
M635.554504,153.125671 
	C633.913513,151.748169 632.425354,150.087311 630.578613,149.091431 
	C629.319092,148.412231 627.558411,148.662216 626.021851,148.496750 
	C625.978882,150.009628 625.542847,151.649994 625.982605,153.006317 
	C626.689392,155.185730 627.975098,157.177414 628.641235,159.649841 
	C627.971069,160.083191 627.675903,160.115112 627.182861,159.905411 
	C625.663025,157.191483 623.946411,154.836014 623.166931,152.203125 
	C622.698547,150.620773 623.108521,148.013046 624.189514,146.950256 
	C625.294739,145.863632 628.262817,145.205414 629.429565,145.935394 
	C632.383545,147.783615 634.784668,150.515488 636.943604,152.947769 
	C636.171448,153.043289 635.862976,153.084488 635.554504,153.125671 
z"/>
<path fill="#8E3584" opacity="1.000000" stroke="none" 
	d="
M646.956177,144.009857 
	C647.872192,153.781570 645.803711,158.899521 639.375427,161.857986 
	C638.481567,159.592819 637.594727,157.345535 636.918823,154.503952 
	C637.322144,153.752090 637.514648,153.594528 637.860229,153.739105 
	C638.896851,155.356354 639.780457,156.671494 640.798462,158.186569 
	C645.431763,154.564651 645.193604,149.746841 645.419556,144.881409 
	C646.076599,144.504150 646.516357,144.257004 646.956177,144.009857 
z"/>
<path fill="#624987" opacity="1.000000" stroke="none" 
	d="
M613.425110,174.623093 
	C613.115417,174.697556 612.805664,174.772034 612.029297,174.958008 
	C606.979736,170.011765 602.396667,164.954025 598.115234,159.470825 
	C598.742371,158.958786 599.067932,158.872208 599.690613,158.903458 
	C604.466919,164.221893 608.945984,169.422501 613.425110,174.623093 
z"/>
<path fill="#41719F" opacity="1.000000" stroke="none" 
	d="
M560.507019,149.150650 
	C560.040344,148.679321 560.027466,148.243774 560.467468,147.401428 
	C567.779419,147.778961 574.638489,148.563309 581.266846,149.644043 
	C580.890259,150.143997 580.744385,150.347549 580.598572,150.551086 
	C574.052673,150.096207 567.506714,149.641312 560.507019,149.150650 
z"/>
<path fill="#486193" opacity="1.000000" stroke="none" 
	d="
M599.393433,158.785629 
	C599.067932,158.872208 598.742371,158.958786 597.927917,159.185791 
	C592.453186,156.777405 587.467346,154.228561 582.256348,151.056396 
	C582.065002,150.141251 582.098877,149.849411 582.514282,149.621307 
	C588.394958,152.718567 593.894226,155.752090 599.393433,158.785629 
z"/>
<path fill="#624987" opacity="1.000000" stroke="none" 
	d="
M624.990967,127.757751 
	C625.016907,127.308113 625.042847,126.858482 625.098877,126.070938 
	C629.791626,127.548325 634.454224,129.363632 638.807434,131.593414 
	C638.178772,132.077713 637.859558,132.147507 637.223694,132.098404 
	C632.935059,130.572266 628.963013,129.165009 624.990967,127.757751 
z"/>
<path fill="#764086" opacity="1.000000" stroke="none" 
	d="
M637.540283,132.217285 
	C637.859558,132.147507 638.178772,132.077713 638.979004,131.899841 
	C641.959839,135.615417 644.459778,139.439087 646.957886,143.636292 
	C646.516357,144.257004 646.076599,144.504150 645.305847,144.526367 
	C642.496704,140.273376 640.018494,136.245331 637.540283,132.217285 
z"/>
<path fill="#256D92" opacity="1.000000" stroke="none" 
	d="
M613.903748,101.697639 
	C613.949707,101.368004 613.995728,101.038353 614.104553,100.212677 
	C617.017212,101.164543 619.867004,102.612450 622.930664,104.293808 
	C623.065002,104.858925 622.985413,105.190582 622.481689,105.847809 
	C619.339600,104.681465 616.621704,103.189552 613.903748,101.697639 
z"/>
<path fill="#41719F" opacity="1.000000" stroke="none" 
	d="
M582.132812,149.557587 
	C582.098877,149.849411 582.065002,150.141251 581.965454,150.869629 
	C581.588928,151.169205 581.278198,151.032211 580.782959,150.723145 
	C580.744385,150.347549 580.890259,150.143997 581.425049,149.696701 
	C581.813965,149.452957 582.132812,149.557587 582.132812,149.557587 
z"/>
<path fill="#8E3584" opacity="1.000000" stroke="none" 
	d="
M635.692627,153.356476 
	C635.862976,153.084488 636.171448,153.043289 637.023865,153.080353 
	C637.567810,153.158630 637.707214,153.436966 637.707214,153.436966 
	C637.514648,153.594528 637.322144,153.752090 636.836853,154.145203 
	C636.306274,154.116257 636.068481,153.851746 635.692627,153.356476 
z"/>
<path fill="#8E3584" opacity="1.000000" stroke="none" 
	d="
M627.380676,160.147049 
	C627.675903,160.115112 627.971069,160.083191 628.710205,160.007462 
	C629.154114,159.963654 629.309692,160.315628 629.355957,160.501740 
	C629.204407,160.839386 629.006653,160.990936 628.380920,161.124573 
	C627.762207,160.786789 627.571472,160.466919 627.380676,160.147049 
z"/>
<path fill="#121541" opacity="1.000000" stroke="none" 
	d="
M627.182861,159.905411 
	C627.571472,160.466919 627.762207,160.786789 628.084717,161.352570 
	C628.481018,164.210815 628.970093,166.824142 628.958374,169.435226 
	C628.940247,173.489960 627.406677,177.042496 623.492188,178.667908 
	C619.427124,180.355865 616.652039,177.558090 613.696899,174.827362 
	C608.945984,169.422501 604.466919,164.221893 599.690613,158.903458 
	C593.894226,155.752090 588.394958,152.718567 582.514282,149.621307 
	C582.132812,149.557587 581.813965,149.452957 581.655762,149.400299 
	C574.638489,148.563309 567.779419,147.778961 560.459717,147.075089 
	C559.346985,147.054489 558.601562,147.122360 558.058838,146.822937 
	C555.779907,145.565659 553.561584,144.198547 551.321045,142.871628 
	C553.165833,140.547333 554.605530,137.589767 556.969788,136.077621 
	C559.312378,134.579330 562.558533,134.354843 565.460205,133.906937 
	C568.666992,133.411911 571.973572,133.046188 572.814758,129.274155 
	C573.705566,125.279510 571.157593,123.209572 567.421082,121.847267 
	C561.634399,121.300270 556.209595,120.811714 550.469177,120.294731 
	C549.671997,116.095924 554.476379,108.950653 560.865601,106.134445 
	C569.176331,102.471260 578.157959,105.474640 584.532471,114.184013 
	C586.089172,117.682465 587.858459,120.802361 591.968750,119.569748 
	C595.632568,118.471039 595.854309,115.090744 595.603027,111.730370 
	C595.390503,108.888382 594.374756,104.196251 595.549683,103.522255 
	C598.946899,101.573494 603.231628,100.981735 607.246338,100.384140 
	C609.097778,100.108559 611.131836,101.060364 613.493408,101.576645 
	C616.621704,103.189552 619.339600,104.681465 622.360229,106.344833 
	C624.522034,108.794334 626.381104,111.072365 628.978821,114.255486 
	C625.808655,114.784920 623.568115,114.885017 621.520691,115.565994 
	C618.535400,116.558914 615.402893,117.569359 612.896729,119.360741 
	C611.518311,120.345970 610.361755,123.225372 610.816223,124.736076 
	C611.251648,126.183495 613.791565,127.577789 615.600281,127.896584 
	C618.335205,128.378616 621.238220,127.907471 624.530396,127.799561 
	C628.963013,129.165009 632.935059,130.572266 637.223694,132.098419 
	C640.018494,136.245331 642.496704,140.273376 645.088623,144.656464 
	C645.193604,149.746841 645.431763,154.564651 640.798462,158.186569 
	C639.780457,156.671494 638.896851,155.356354 637.860229,153.739105 
	C637.707214,153.436966 637.567810,153.158630 637.487549,153.026031 
	C634.784668,150.515488 632.383545,147.783615 629.429565,145.935394 
	C628.262817,145.205414 625.294739,145.863632 624.189514,146.950256 
	C623.108521,148.013046 622.698547,150.620773 623.166931,152.203125 
	C623.946411,154.836014 625.663025,157.191483 627.182861,159.905411 
M614.963745,168.625702 
	C615.305359,168.745804 615.646973,168.865891 616.001953,168.997940 
	C616.001953,168.997940 616.011047,169.013260 615.658386,169.720474 
	C616.696228,173.008423 618.803894,176.157898 622.239990,174.695084 
	C624.108887,173.899445 625.773438,169.714783 625.445923,167.346924 
	C624.947449,163.742096 622.639954,160.387436 620.923523,156.191727 
	C617.021606,145.837875 620.124573,141.479034 631.665344,142.201950 
	C632.107056,142.129929 632.548706,142.057922 633.002808,141.997681 
	C633.002808,141.997681 633.017212,142.006760 633.113098,142.680847 
	C635.491943,144.795807 637.870728,146.910751 640.978699,149.673950 
	C642.555542,142.781235 638.998413,139.284729 634.924194,135.263550 
	C632.290894,134.150406 629.657532,133.037277 626.300598,131.545639 
	C624.358154,131.451675 622.374695,131.575577 620.481628,131.219254 
	C616.296448,130.431473 612.156677,129.402084 607.836060,128.326172 
	C607.836060,128.326172 607.528931,128.017731 607.356873,127.170074 
	C604.818665,116.126831 614.513428,115.056076 621.054932,111.414803 
	C620.991028,110.972557 620.927063,110.530319 620.863098,110.088074 
	C618.730164,109.382446 616.597168,108.676826 613.846436,107.989532 
	C612.910522,107.712242 611.974670,107.434952 611.005981,106.275452 
	C608.292725,105.816162 605.592957,105.237061 602.862732,104.927948 
	C599.459290,104.542610 598.045776,105.901474 598.809998,109.537506 
	C599.754028,114.029488 599.360168,118.380974 595.221558,122.263168 
	C592.484131,122.490654 589.746704,122.718140 586.381775,122.697159 
	C584.501526,120.226112 582.394165,117.893280 580.788330,115.255203 
	C577.464417,109.794785 572.508301,107.779396 566.474976,108.186562 
	C561.071350,108.551224 557.643188,111.548248 556.819824,115.663651 
	C562.743347,117.443481 568.607483,119.205460 574.875854,121.009300 
	C575.248718,121.160805 575.621643,121.312317 575.423462,122.321365 
	C577.531799,133.147415 575.288513,136.102203 564.444641,137.307999 
	C561.123718,137.677277 557.327393,137.754181 555.827271,143.695572 
	C561.306763,143.092102 566.175232,142.555923 571.006653,142.001450 
	C571.006653,142.001450 570.973755,141.976395 571.244995,142.680649 
	C578.166321,144.780258 585.087646,146.879883 592.500488,149.441116 
	C596.505188,152.039230 600.509827,154.637344 604.851135,157.839355 
	C607.721313,160.923492 610.591492,164.007629 613.827576,167.631668 
	C614.215881,167.748688 614.604187,167.865692 615.003845,167.999008 
	C615.003845,167.999008 615.016968,168.013992 614.963745,168.625702 
z"/>
<path fill="#121440" opacity="1.000000" stroke="none" 
	d="
M611.038757,107.157654 
	C611.974670,107.434952 612.910522,107.712242 614.338379,108.256561 
	C615.356201,109.133202 615.882141,109.742821 616.654541,110.638145 
	C614.875305,111.412514 613.369934,112.001160 611.923340,112.709892 
	C607.762207,114.748596 605.072388,118.082367 604.605530,122.658272 
	C604.400208,124.671272 603.487732,127.941345 607.528931,128.017731 
	C607.528931,128.017731 607.836060,128.326172 607.572144,128.565399 
	C608.018677,133.325150 611.787842,133.565063 615.049500,133.860138 
	C618.990173,134.216644 622.993530,133.879898 627.285889,134.011017 
	C629.525513,134.893143 631.449036,135.607437 633.540894,136.631561 
	C634.778503,138.302063 635.847778,139.662735 637.278564,141.483322 
	C635.438782,141.709305 634.227966,141.858032 633.017212,142.006744 
	C633.017212,142.006760 633.002808,141.997681 633.064453,141.667801 
	C632.421631,140.900772 631.717163,140.463623 630.670471,139.874069 
	C625.101135,138.207336 621.135254,140.505798 618.447693,144.551559 
	C615.345398,149.221649 616.745300,153.963638 619.880249,158.651733 
	C622.017334,163.383621 624.958313,167.665222 621.517578,173.315750 
	C619.484192,171.726974 617.747620,170.370117 616.011047,169.013260 
	C616.011047,169.013260 616.001953,168.997940 615.987427,168.707550 
	C615.654236,168.282761 615.335571,168.148376 615.016968,168.013992 
	C615.016968,168.013992 615.003845,167.999008 615.131226,167.744064 
	C615.232300,167.304062 615.206055,167.119003 615.081421,166.603088 
	C612.127991,163.116486 609.273010,159.960754 606.199341,156.538864 
	C601.331665,153.156738 596.682617,150.040787 591.777954,146.687103 
	C585.023071,143.349365 578.374878,140.933289 570.973755,141.976395 
	C570.973755,141.976395 571.006653,142.001450 570.953003,141.731796 
	C570.599060,140.976303 570.298706,140.490463 569.999817,139.803375 
	C570.001221,139.602142 570.003540,139.199661 570.336609,139.070984 
	C579.445374,134.645706 581.417542,128.172211 575.994507,121.463829 
	C575.621643,121.312317 575.248718,121.160805 574.768616,120.605103 
	C570.181396,117.733788 565.701416,115.266663 561.567444,112.990120 
	C567.238342,108.689049 574.459778,110.345512 579.375854,117.369827 
	C581.362061,120.207901 584.307922,122.374367 586.999207,125.056381 
	C591.136963,127.481384 594.220276,125.777542 597.388733,122.903969 
	C601.193176,119.731552 601.939209,115.797478 601.492615,111.457062 
	C601.055542,107.209427 602.480042,105.761391 606.670105,106.290947 
	C608.139404,106.476646 609.583252,106.862953 611.038757,107.157654 
M613.299805,137.303864 
	C611.575745,136.746658 609.851746,136.189453 607.737915,135.125580 
	C605.822388,133.082062 603.906860,131.038544 601.869812,128.281158 
	C600.422607,127.652390 598.436646,126.082771 597.617859,126.551582 
	C593.188721,129.087692 588.680359,128.808853 583.596436,127.364861 
	C579.544739,127.602448 581.293091,131.139587 580.025879,133.699097 
	C579.764465,134.285156 579.503052,134.871216 578.835022,135.808258 
	C579.130127,136.642212 579.425171,137.476151 580.310852,138.803665 
	C582.941406,139.386032 585.571899,139.968399 588.712952,141.053406 
	C592.427490,142.792648 596.141968,144.531891 600.246948,146.798798 
	C601.755798,147.736023 603.264587,148.673248 605.047241,150.177704 
	C608.084412,152.785294 611.121582,155.392883 614.158752,158.000488 
	C612.554688,150.467804 614.266174,144.219894 620.028320,137.689209 
	C617.017761,137.689209 615.500977,137.689209 613.299805,137.303864 
z"/>
<path fill="#1E8BAA" opacity="1.000000" stroke="none" 
	d="
M586.817078,124.846466 
	C584.307922,122.374367 581.362061,120.207901 579.375854,117.369827 
	C574.459778,110.345512 567.238342,108.689049 561.567444,112.990120 
	C565.701416,115.266663 570.181396,117.733788 574.566467,120.584167 
	C568.607483,119.205460 562.743347,117.443481 556.819824,115.663651 
	C557.643188,111.548248 561.071350,108.551224 566.474976,108.186562 
	C572.508301,107.779396 577.464417,109.794785 580.788330,115.255203 
	C582.394165,117.893280 584.501526,120.226112 586.658569,123.297775 
	C586.895935,124.214424 586.856506,124.530449 586.817078,124.846466 
z"/>
<path fill="#2683A6" opacity="1.000000" stroke="none" 
	d="
M569.998413,140.004623 
	C570.298706,140.490463 570.599060,140.976303 570.971558,141.740936 
	C566.175232,142.555923 561.306763,143.092102 555.827271,143.695572 
	C557.327393,137.754181 561.123718,137.677277 564.444641,137.307999 
	C575.288513,136.102203 577.531799,133.147415 575.708984,121.892593 
	C581.417542,128.172211 579.445374,134.645706 570.144531,139.090057 
	C569.745728,139.493423 569.872070,139.749023 569.998413,140.004623 
z"/>
<path fill="#41719F" opacity="1.000000" stroke="none" 
	d="
M607.442871,127.593903 
	C603.487732,127.941345 604.400208,124.671272 604.605530,122.658272 
	C605.072388,118.082367 607.762207,114.748596 611.923340,112.709892 
	C613.369934,112.001160 614.875305,111.412514 616.654541,110.638145 
	C615.882141,109.742821 615.356201,109.133202 614.647217,108.247391 
	C616.597168,108.676826 618.730164,109.382446 620.863098,110.088074 
	C620.927063,110.530319 620.991028,110.972557 621.054932,111.414803 
	C614.513428,115.056076 604.818665,116.126831 607.442871,127.593903 
z"/>
<path fill="#764086" opacity="1.000000" stroke="none" 
	d="
M615.834717,169.366867 
	C617.747620,170.370117 619.484192,171.726974 621.517578,173.315750 
	C624.958313,167.665222 622.017334,163.383621 620.051270,158.375641 
	C620.447754,157.477127 620.774231,157.201828 621.100708,156.926544 
	C622.639954,160.387436 624.947449,163.742096 625.445923,167.346924 
	C625.773438,169.714783 624.108887,173.899445 622.239990,174.695084 
	C618.803894,176.157898 616.696228,173.008423 615.834717,169.366867 
z"/>
<path fill="#624987" opacity="1.000000" stroke="none" 
	d="
M621.012085,156.559143 
	C620.774231,157.201828 620.447754,157.477127 619.950256,158.028503 
	C616.745300,153.963638 615.345398,149.221649 618.447693,144.551559 
	C621.135254,140.505798 625.101135,138.207336 630.666931,140.209122 
	C631.003296,141.143921 631.001099,141.591263 630.998901,142.038605 
	C620.124573,141.479034 617.021606,145.837875 621.012085,156.559143 
z"/>
<path fill="#2683A6" opacity="1.000000" stroke="none" 
	d="
M611.022339,106.716553 
	C609.583252,106.862953 608.139404,106.476646 606.670105,106.290947 
	C602.480042,105.761391 601.055542,107.209427 601.492615,111.457062 
	C601.939209,115.797478 601.193176,119.731552 597.158630,122.769447 
	C596.401917,122.516441 596.185486,122.238823 595.968994,121.961212 
	C599.360168,118.380974 599.754028,114.029488 598.809998,109.537506 
	C598.045776,105.901474 599.459290,104.542610 602.862732,104.927948 
	C605.592957,105.237061 608.292725,105.816162 611.022339,106.716553 
z"/>
<path fill="#556096" opacity="1.000000" stroke="none" 
	d="
M626.969788,133.843201 
	C622.993530,133.879898 618.990173,134.216644 615.049500,133.860138 
	C611.787842,133.565063 608.018677,133.325150 607.653320,128.637924 
	C612.156677,129.402084 616.296448,130.431473 620.481628,131.219254 
	C622.374695,131.575577 624.358154,131.451675 626.656616,132.055405 
	C626.998413,132.991180 626.984070,133.417191 626.969788,133.843201 
z"/>
<path fill="#486193" opacity="1.000000" stroke="none" 
	d="
M571.109375,142.328522 
	C578.374878,140.933289 585.023071,143.349365 591.767822,147.029602 
	C592.011841,148.066391 592.010437,148.522949 592.008972,148.979492 
	C585.087646,146.879883 578.166321,144.780258 571.109375,142.328522 
z"/>
<path fill="#764086" opacity="1.000000" stroke="none" 
	d="
M633.065186,142.343796 
	C634.227966,141.858032 635.438782,141.709305 637.278564,141.483322 
	C635.847778,139.662735 634.778503,138.302063 634.045654,136.497910 
	C634.717957,135.972824 635.053772,135.891220 635.389587,135.809631 
	C638.998413,139.284729 642.555542,142.781235 640.978699,149.673950 
	C637.870728,146.910751 635.491943,144.795807 633.065186,142.343796 
z"/>
<path fill="#556096" opacity="1.000000" stroke="none" 
	d="
M592.254761,149.210297 
	C592.010437,148.522949 592.011841,148.066391 592.023376,147.267349 
	C596.682617,150.040787 601.331665,153.156738 605.723145,156.648590 
	C605.148499,157.094818 604.831482,157.165131 604.514526,157.235443 
	C600.509827,154.637344 596.505188,152.039230 592.254761,149.210297 
z"/>
<path fill="#624987" opacity="1.000000" stroke="none" 
	d="
M604.682861,157.537399 
	C604.831482,157.165131 605.148499,157.094818 605.941772,156.914764 
	C609.273010,159.960754 612.127991,163.116486 614.651855,166.647430 
	C614.034302,167.045685 613.747986,167.068726 613.461731,167.091766 
	C610.591492,164.007629 607.721313,160.923492 604.682861,157.537399 
z"/>
<path fill="#256D92" opacity="1.000000" stroke="none" 
	d="
M595.595276,122.112183 
	C596.185486,122.238823 596.401917,122.516441 596.848450,122.928581 
	C594.220276,125.777542 591.136963,127.481384 586.999207,125.056381 
	C586.856506,124.530449 586.895935,124.214424 586.972351,123.422012 
	C589.746704,122.718140 592.484131,122.490654 595.595276,122.112183 
z"/>
<path fill="#624987" opacity="1.000000" stroke="none" 
	d="
M635.156860,135.536591 
	C635.053772,135.891220 634.717957,135.972824 633.877380,136.188080 
	C631.449036,135.607437 629.525513,134.893143 627.285889,134.011017 
	C626.984070,133.417191 626.998413,132.991180 627.018433,132.244659 
	C629.657532,133.037277 632.290894,134.150406 635.156860,135.536591 
z"/>
<path fill="#764086" opacity="1.000000" stroke="none" 
	d="
M631.332153,142.120270 
	C631.001099,141.591263 631.003296,141.143921 631.009094,140.361526 
	C631.717163,140.463623 632.421631,140.900772 633.058289,141.661926 
	C632.548706,142.057922 632.107056,142.129929 631.332153,142.120270 
z"/>
<path fill="#764086" opacity="1.000000" stroke="none" 
	d="
M613.644653,167.361710 
	C613.747986,167.068726 614.034302,167.045685 614.750244,166.978302 
	C615.206055,167.119003 615.232300,167.304062 615.125488,167.735901 
	C614.604187,167.865692 614.215881,167.748688 613.644653,167.361710 
z"/>
<path fill="#764086" opacity="1.000000" stroke="none" 
	d="
M614.990356,168.319855 
	C615.335571,168.148376 615.654236,168.282761 615.980713,168.701569 
	C615.646973,168.865891 615.305359,168.745804 614.990356,168.319855 
z"/>
<path fill="#6199CB" opacity="1.000000" stroke="none" 
	d="
M599.856506,146.271118 
	C596.141968,144.531891 592.427490,142.792648 588.819763,140.594666 
	C593.281494,136.422287 597.636475,132.708664 601.991394,128.995041 
	C603.906860,131.038544 605.822388,133.082062 607.865234,135.748154 
	C605.280579,139.670868 602.568542,142.971008 599.856506,146.271118 
z"/>
<path fill="#54AAD6" opacity="1.000000" stroke="none" 
	d="
M601.930603,128.638092 
	C597.636475,132.708664 593.281494,136.422287 588.564514,140.343353 
	C585.571899,139.968399 582.941406,139.386032 580.016357,138.070663 
	C579.561768,136.710861 579.401672,136.084076 579.241638,135.457275 
	C579.503052,134.871216 579.764465,134.285156 580.470154,133.284561 
	C581.949951,131.210892 582.985474,129.551758 584.020996,127.892639 
	C588.680359,128.808853 593.188721,129.087692 597.617859,126.551582 
	C598.436646,126.082771 600.422607,127.652390 601.930603,128.638092 
z"/>
<path fill="#7E74B5" opacity="1.000000" stroke="none" 
	d="
M613.984131,137.689209 
	C615.500977,137.689209 617.017761,137.689209 620.028320,137.689209 
	C614.266174,144.219894 612.554688,150.467804 614.158752,158.000488 
	C611.121582,155.392883 608.084412,152.785294 605.060791,149.540482 
	C608.044312,145.165253 611.014221,141.427231 613.984131,137.689209 
z"/>
<path fill="#7785C1" opacity="1.000000" stroke="none" 
	d="
M613.641968,137.496552 
	C611.014221,141.427231 608.044312,145.165253 604.923889,149.256866 
	C603.264587,148.673248 601.755798,147.736023 600.051758,146.534973 
	C602.568542,142.971008 605.280579,139.670868 608.060181,136.001495 
	C609.851746,136.189453 611.575745,136.746658 613.641968,137.496552 
z"/>
<path fill="#2683A6" opacity="1.000000" stroke="none" 
	d="
M583.808716,127.628746 
	C582.985474,129.551758 581.949951,131.210892 580.616333,132.998779 
	C581.293091,131.139587 579.544739,127.602448 583.808716,127.628746 
z"/>
<path fill="#2683A6" opacity="1.000000" stroke="none" 
	d="
M579.038330,135.632767 
	C579.401672,136.084076 579.561768,136.710861 579.721069,137.823883 
	C579.425171,137.476151 579.130127,136.642212 579.038330,135.632767 
z"/>
<path fill="#121541" opacity="1.000000" stroke="none" 
	d="
M569.999817,139.803375 
	C569.872070,139.749023 569.745728,139.493423 569.811462,139.218735 
	C570.003540,139.199661 570.001221,139.602142 569.999817,139.803375 
z"/>
</svg>